<svg width="28" height="35" viewBox="0 0 28 35" fill="none" xmlns="http://www.w3.org/2000/svg">
<path d="M28 34.52V30.52C28 27.206 25.315 24.52 22 24.52H6C4.4087 24.52 2.88258 25.1522 1.75736 26.2774C0.632141 27.4026 0 28.9287 0 30.52V34.52H28Z" fill="#292F33"/>
<path d="M18.5 28.523L22.792 27.607L20.879 24.52L18.5 24.523V28.523Z" fill="#546170"/>
<path d="M16.5801 34.52H19.4101L23.7921 26.853L20.8791 27.777L19.1351 25.573L16.5801 34.52Z" fill="#66757F"/>
<path d="M9.50001 28.523L5.20801 27.607L7.12001 24.52L9.50001 24.523V28.523Z" fill="#546170"/>
<path d="M11.42 34.52H8.59001L4.20801 26.853L7.12001 27.777L8.86501 25.573L11.42 34.52Z" fill="#66757F"/>
<path d="M16.805 34.5199L19.667 24.5029H8.33301L11.195 34.5199H16.805Z" fill="#DFE7EC"/>
<path d="M13.9998 31.067C14.3864 31.067 14.6998 30.7536 14.6998 30.367C14.6998 29.9804 14.3864 29.667 13.9998 29.667C13.6132 29.667 13.2998 29.9804 13.2998 30.367C13.2998 30.7536 13.6132 31.067 13.9998 31.067Z" fill="#292F33"/>
<path d="M13.9998 33.9239C14.3864 33.9239 14.6998 33.6105 14.6998 33.2239C14.6998 32.8373 14.3864 32.5239 13.9998 32.5239C13.6132 32.5239 13.2998 32.8373 13.2998 33.2239C13.2998 33.6105 13.6132 33.9239 13.9998 33.9239Z" fill="#292F33"/>
<path d="M10 24.407L14 26.157L18 24.407V20.407H10V24.407Z" fill="#7C533E"/>
<path d="M10 22.52C11.216 23.894 12.355 24.239 13.996 24.239C15.635 24.239 16.783 23.893 18 22.52V18.52H10V22.52Z" fill="#664131"/>
<path d="M23.833 12.4549C23.833 11.0069 23.1 9.83189 22.194 9.83189C22.112 9.83189 22.033 9.85189 21.954 9.87089C20.73 6.06589 17.635 3.35889 14 3.35889C10.365 3.35889 7.27102 6.06589 6.04502 9.87089C5.96602 9.85189 5.88702 9.83189 5.80502 9.83189C4.90002 9.83189 4.16602 11.0069 4.16602 12.4549C4.16602 13.7849 4.78702 14.8719 5.58902 15.0419C6.22302 19.8869 9.74202 23.5989 14 23.5989C18.258 23.5989 21.776 19.8869 22.411 15.0419C23.213 14.8719 23.833 13.7849 23.833 12.4549Z" fill="#7C533E"/>
<path d="M9.92701 23.2639L14 26.1569L11.344 28.9749L8.33301 24.5029L9.92701 23.2639ZM18.073 23.2639L14 26.1569L16.656 28.9749L19.667 24.5029L18.073 23.2639Z" fill="#F4F7F9"/>
<path d="M17.0449 25.1728C17.01 25.152 16.9703 25.1408 16.9298 25.1402C16.8892 25.1397 16.8492 25.1499 16.8139 25.1698L13.9999 26.7168L11.1859 25.1698C11.1504 25.1498 11.1103 25.1395 11.0696 25.1399C11.0289 25.1403 10.9891 25.1514 10.954 25.172C10.919 25.1927 10.89 25.2222 10.8699 25.2577C10.8499 25.2931 10.8395 25.3331 10.8399 25.3738V28.5918C10.8404 28.6536 10.8652 28.7128 10.909 28.7564C10.9528 28.8 11.012 28.8246 11.0739 28.8248C11.1129 28.8248 11.1509 28.8148 11.1859 28.7958L13.9999 27.2478L16.8139 28.7958C16.8489 28.8158 16.8869 28.8248 16.9259 28.8248C16.9676 28.8247 17.0086 28.8136 17.0449 28.7928C17.0795 28.7719 17.1082 28.7424 17.1281 28.7072C17.1481 28.672 17.1587 28.6323 17.1589 28.5918V25.3738C17.1587 25.3334 17.1481 25.2936 17.1281 25.2584C17.1082 25.2232 17.0795 25.1938 17.0449 25.1728Z" fill="#292F33"/>
<path d="M14.0002 20.322C11.2462 20.322 10.4002 19.617 10.2592 19.474C10.1332 19.3544 10.0599 19.1896 10.0554 19.016C10.0509 18.8423 10.1156 18.674 10.2352 18.548C10.3548 18.422 10.5195 18.3487 10.6932 18.3442C10.8669 18.3397 11.0352 18.4044 11.1612 18.524C11.2132 18.561 11.8822 19.011 14.0002 19.011C16.2002 19.011 16.8362 18.526 16.8422 18.521C16.9026 18.4611 16.9744 18.4139 17.0533 18.3822C17.1323 18.3504 17.2168 18.3348 17.3018 18.3362C17.3869 18.3376 17.4708 18.356 17.5487 18.3903C17.6266 18.4246 17.6968 18.4742 17.7552 18.536C17.8763 18.663 17.9428 18.8324 17.9401 19.0079C17.9375 19.1833 17.8661 19.3507 17.7412 19.474C17.6002 19.617 16.7542 20.322 14.0002 20.322ZM14.7502 16.27H13.2502C12.8372 16.27 12.5002 15.933 12.5002 15.52C12.5002 15.107 12.8372 14.77 13.2502 14.77H14.7502C15.1632 14.77 15.5002 15.107 15.5002 15.52C15.5002 15.933 15.1632 16.27 14.7502 16.27Z" fill="#3D2E24"/>
<path d="M18 13.52C17.45 13.52 17 13.07 17 12.52V11.52C17 10.97 17.45 10.52 18 10.52C18.55 10.52 19 10.97 19 11.52V12.52C19 13.07 18.55 13.52 18 13.52ZM10 13.52C9.45 13.52 9 13.07 9 12.52V11.52C9 10.97 9.45 10.52 10 10.52C10.55 10.52 11 10.97 11 11.52V12.52C11 13.07 10.55 13.52 10 13.52Z" fill="black"/>
<path d="M14.0002 0C19.6482 0 23.1782 4.168 23.1782 7.641C23.1782 11.114 22.4722 12.504 21.7662 11.114L20.3542 8.336C20.3542 8.336 16.1192 8.336 14.7072 6.946C14.7072 6.946 16.8252 11.114 12.5892 6.946C12.5892 6.946 13.2952 9.725 9.05924 6.252C9.05924 6.252 6.94124 7.641 6.23524 11.114C6.03924 12.078 4.82324 11.114 4.82324 7.641C4.82224 4.168 7.64624 0 14.0002 0Z" fill="#0B0200"/>
</svg>
