<svg width="35" height="33" viewBox="0 0 35 33" fill="none" xmlns="http://www.w3.org/2000/svg">
<path d="M14.2152 19.4293L12.3265 20.2415C11.6906 20.5122 10.9729 20.5122 10.3434 20.2415L8.4547 19.4293C7.52924 19.0327 6.93115 18.1198 6.93115 17.1125V13.7381C6.93115 11.6542 8.62468 9.96069 10.7085 9.96069H11.9677C14.0515 9.96069 15.745 11.6542 15.745 13.7381V17.1125C15.745 18.1198 15.147 19.0327 14.2215 19.4293H14.2152Z" fill="#DDA15E"/>
<path d="M19.6047 23.1815C18.4589 22.0168 16.8661 21.2928 15.1097 21.2928H13.221C13.221 22.3379 12.3774 23.1815 11.3323 23.1815C10.2872 23.1815 9.4436 22.3379 9.4436 21.2928H7.55491C4.07972 21.2928 1.25928 24.1133 1.25928 27.5885V31.9954H15.1097L17.6279 23.1815H19.6047Z" fill="#274C77"/>
<path d="M8.18457 29.4772H9.4437C10.1362 29.4772 10.7028 30.0438 10.7028 30.7363V31.9954H8.18457V29.4772Z" fill="#DDA15E"/>
<path d="M5.03664 14.8273C4.85407 14.9343 4.63372 14.9973 4.40708 14.9973C3.71456 14.9973 3.14795 14.4306 3.14795 13.7381C3.14795 13.0456 3.71456 12.479 4.40708 12.479C4.67149 12.479 4.91702 12.5608 5.12478 12.7056" fill="#274C77"/>
<path d="M17.6282 14.8273C17.8108 14.9343 18.0311 14.9973 18.2577 14.9973C18.9503 14.9973 19.5169 14.4306 19.5169 13.7381C19.5169 13.0456 18.9503 12.479 18.2577 12.479C17.9933 12.479 17.7478 12.5608 17.54 12.7056" fill="#274C77"/>
<path d="M9.44385 19.8512L10.3378 20.2352C10.9737 20.5122 11.6914 20.5122 12.3272 20.2352L13.2212 19.8512V21.2929C13.2212 22.338 12.3776 23.1816 11.3325 23.1816C10.2875 23.1816 9.44385 22.338 9.44385 21.2929V19.8512Z" fill="#BC6C25"/>
<path d="M15.1099 31.9954L17.6281 23.1815H31.4785L28.9603 31.9954" fill="#8B8C89"/>
<path d="M15.3551 12.0886C14.9963 11.9438 14.5808 11.8494 14.0582 11.8494C11.3322 11.8494 11.3322 14.3676 8.59993 14.3676C7.88852 14.3676 7.35969 14.1977 6.92529 13.9458V13.7381C6.92529 11.6542 8.61882 9.96069 10.7027 9.96069H11.9618C13.4539 9.96069 14.7445 10.8295 15.3551 12.0886Z" fill="#274C77"/>
<path d="M15.7392 16.6341V13.7381C15.7392 11.6543 14.0457 9.96076 11.9618 9.96076H10.7027C8.61884 9.96076 6.92531 11.6543 6.92531 13.7381V16.2564H5.66618C5.31992 16.2564 5.03662 15.9731 5.03662 15.6268V13.7381C5.03662 10.2629 7.85706 7.4425 11.3323 7.4425C13.0698 7.4425 14.6438 8.14762 15.7833 9.28713C16.9228 10.4266 17.6279 12.0005 17.6279 13.7381V15.7401C17.6279 16.0423 17.4138 16.3005 17.1242 16.3571L15.7392 16.6341Z" fill="#E7ECEF"/>
<path d="M23.2939 26.959C23.6402 26.959 23.9235 27.2423 23.9235 27.5885C23.9235 27.9348 23.6402 28.2181 23.2939 28.2181V26.959Z" fill="#A3CEF1"/>
<path d="M11.3324 17.5155C11.2632 17.1755 11.4835 16.8419 11.8235 16.7726L16.9985 15.7401V13.9396C16.9985 10.924 14.7258 8.28611 11.7228 8.08465C8.42384 7.8643 5.66635 10.4833 5.66635 13.7381V15.6268H6.92548V16.8859H5.66635C4.97383 16.8859 4.40723 16.3193 4.40723 15.6268V13.9396C4.40723 10.3385 7.07657 7.17808 10.6651 6.84441C14.7824 6.45408 18.2576 9.69633 18.2576 13.7381V15.7401C18.2576 16.3382 17.8358 16.8545 17.244 16.9741L12.069 18.0066C11.729 18.0758 11.3954 17.8555 11.3261 17.5155H11.3324Z" fill="#6096BA"/>
<path d="M11.3324 31.9954H10.0733V30.7363C10.0733 30.39 9.78999 30.1067 9.44373 30.1067H5.03679C4.69053 30.1067 4.40723 29.8234 4.40723 29.4772V26.9589C4.40723 26.7889 4.47648 26.6315 4.5898 26.5119L5.40194 25.6998C5.64747 25.4542 6.04409 25.4542 6.28962 25.6998C6.53515 25.9453 6.53515 26.3419 6.28962 26.5875L5.66006 27.217V28.8476H9.43744C10.4825 28.8476 11.3261 29.6912 11.3261 30.7363V31.9954H11.3324Z" fill="#6096BA"/>
<path d="M31.4782 31.3658H0V32.625H31.4782V31.3658Z" fill="#A3CEF1"/>
<path d="M25.8643 16.875C30.5242 16.875 34.3018 13.0974 34.3018 8.4375C34.3018 3.7776 30.5242 0 25.8643 0C21.2044 0 17.4268 3.7776 17.4268 8.4375C17.4268 13.0974 21.2044 16.875 25.8643 16.875Z" fill="#A3CEF1"/>
<path d="M26.4268 18H25.3018V19.125H26.4268V18Z" fill="#6096BA"/>
<path d="M24.7393 20.25H23.6143V21.375H24.7393V20.25Z" fill="#6096BA"/>
<path d="M22.4893 21.375H21.3643V22.5H22.4893V21.375Z" fill="#6096BA"/>
<path d="M19.6768 7.875H23.6143L23.2655 9.27562C23.1418 9.77625 22.6918 10.125 22.1743 10.125H19.6768" fill="#DDA15E"/>
<path d="M21.9268 7.875H20.8018V7.3125C20.8018 7.00312 21.0549 6.75 21.3643 6.75C21.6736 6.75 21.9268 7.00312 21.9268 7.3125V7.875Z" fill="#BC6C25"/>
<path d="M20.2393 7.3125H19.1143V10.6875H20.2393V7.3125Z" fill="#6096BA"/>
<path d="M32.0518 10.125H28.1143L28.463 8.72438C28.5868 8.22375 29.0368 7.875 29.5543 7.875H32.0518" fill="#DDA15E"/>
<path d="M30.3643 11.25C30.0549 11.25 29.8018 10.9969 29.8018 10.6875V10.125H30.9268V10.6875C30.9268 10.9969 30.6736 11.25 30.3643 11.25Z" fill="#BC6C25"/>
<path d="M32.6143 7.3125H31.4893V10.6875H32.6143V7.3125Z" fill="#6096BA"/>
<path d="M26.9443 2.25C26.8149 2.72813 26.3818 3.08812 25.8643 3.08812C25.3468 3.08812 24.908 2.73375 24.7843 2.25C24.0924 2.6325 23.6143 3.36375 23.6143 4.21312C23.6143 5.45625 25.8643 7.02562 25.8643 7.02562C25.8643 7.02562 28.1143 5.45625 28.1143 4.21312C28.1143 3.36375 27.6418 2.63813 26.9443 2.25Z" fill="#F76C5E"/>
<path d="M26.9893 14.0625H26.4268V15.1875L24.7393 14.0625H23.6143V11.8125H26.9893V14.0625Z" fill="#6096BA"/>
</svg>
