<svg width="36" height="29" viewBox="0 0 36 29" fill="none" xmlns="http://www.w3.org/2000/svg">
<path d="M17.9999 28.8005H34.5228V12.1263L16.5293 10.6558L17.9999 28.8005Z" fill="#FFBE00"/>
<path d="M1.47705 12.1263V28.8005H17.9999V10.6558L1.47705 12.1263Z" fill="#FFE074"/>
<path d="M29.9361 0H17.9999L16.5293 6.06312L17.9999 12.1262H34.5228H35.9999V10.7622L29.9361 0Z" fill="#FC2B32"/>
<path d="M18 0H6.06382L0 10.7622V12.1262H1.47712H18V0Z" fill="#FF5D65"/>
<path d="M12.4334 25.5939V21.5654H9.07068L7.6001 23.5797L9.07068 25.5939H12.4334Z" fill="#0089D3"/>
<path d="M12.4631 15.3328H9.07068L7.6001 17.347L9.07068 19.3613H12.4631V15.3328Z" fill="#0089D3"/>
<path d="M21.3778 25.5939V21.5654H18.015L16.5444 23.5797L18.015 25.5939H21.3778Z" fill="#0089D3"/>
<path d="M21.3777 15.3328H17.9852L16.5146 17.347L17.9852 19.3613H21.3777V15.3328Z" fill="#0089D3"/>
<path d="M9.07029 21.5657H5.70752V25.5942H9.07029V21.5657Z" fill="#63C8EE"/>
<path d="M9.07061 15.3325H5.7373V19.3611H9.07061V15.3325Z" fill="#63C8EE"/>
<path d="M30.2923 25.5939V21.5654H26.9296L25.459 23.5797L26.9296 25.5939H30.2923Z" fill="#0089D3"/>
<path d="M30.2923 15.3328H26.8998L25.4292 17.347L26.8998 19.3613H30.2923V15.3328Z" fill="#0089D3"/>
<path d="M18.0146 21.5657H14.6519V25.5942H18.0146V21.5657Z" fill="#63C8EE"/>
<path d="M26.9297 21.5657H23.5669V25.5942H26.9297V21.5657Z" fill="#63C8EE"/>
<path d="M26.93 15.3325H23.5967V19.3611H26.93V15.3325Z" fill="#63C8EE"/>
<path d="M18.0154 15.3325H14.6821V19.3611H18.0154V15.3325Z" fill="#63C8EE"/>
</svg>
