<svg width="36" height="36" viewBox="0 0 36 36" fill="none" xmlns="http://www.w3.org/2000/svg">
<path d="M35.4136 32.5822L26.7113 23.8799L23.6572 25.0898L35.4136 35.4136C36.1955 34.6317 36.1955 33.3641 35.4136 32.5822Z" fill="#D14901"/>
<path d="M23.8799 26.7113L32.5822 35.4136C33.3641 36.1955 34.6318 36.1955 35.4136 35.4136L24.6833 24.6833L23.8799 26.7113Z" fill="#F37A23"/>
<path d="M14.8739 0C10.7666 0 7.04808 1.66486 4.35645 4.35656L13.1932 16.8491L25.3913 25.3915C28.083 22.6998 29.7478 18.9814 29.7478 14.874C29.7478 6.65937 23.0886 0 14.8739 0Z" fill="#898989"/>
<path d="M0 14.8741C0 23.0888 6.65937 29.7481 14.874 29.7481C18.9813 29.7481 22.6998 28.0833 25.3915 25.3916L4.35649 4.35669C1.66479 7.04832 0 10.7668 0 14.8741Z" fill="#B3B3B3"/>
<path d="M14.8739 3.41064C11.7135 3.41064 8.84767 4.69624 6.77197 6.77193L13.1933 16.8489L22.9758 22.9759C25.0515 20.9002 26.3371 18.0343 26.3371 14.8739C26.3372 8.55302 21.1948 3.41064 14.8739 3.41064Z" fill="#63C8EE"/>
<path d="M3.41064 14.8741C3.41064 21.195 8.55309 26.3374 14.8739 26.3374C18.0343 26.3374 20.9002 25.0518 22.9759 22.9761L6.77193 6.77222C4.69631 8.84784 3.41064 11.7137 3.41064 14.8741Z" fill="#BAE5FF"/>
<path d="M14.8739 20.017H19.033V13.5748L13.4033 12.1042L14.8739 20.017Z" fill="#FFBE00"/>
<path d="M14.874 13.575H10.7148V20.0175H14.874V13.575Z" fill="#FFE074"/>
<path d="M14.8739 7.45728L13.4033 11.4246L14.8739 13.5748H19.033H20.716L14.8739 7.45728Z" fill="#FC2B32"/>
<path d="M14.8739 7.45728L9.03174 13.5748H10.7148H14.8739V7.45728Z" fill="#FF5D65"/>
</svg>
