<svg width="20" height="20" viewBox="0 0 20 20" fill="none" xmlns="http://www.w3.org/2000/svg">
<path d="M13.469 5.69754C16.1563 7.52436 17.5 8.43778 17.5 10C17.5 11.5623 16.1563 12.4757 13.469 14.3025C12.7272 14.8068 11.9914 15.2816 11.3153 15.6773C10.7221 16.0244 10.0503 16.3834 9.35484 16.7359C6.67383 18.0945 5.33332 18.7738 4.13104 18.0217C2.92875 17.2696 2.81949 15.6951 2.60095 12.5462C2.53915 11.6557 2.5 10.7827 2.5 10C2.5 9.2174 2.53915 8.3444 2.60095 7.45388C2.81949 4.30493 2.92875 2.73046 4.13104 1.97836C5.33332 1.22625 6.67383 1.90556 9.35484 3.26417C10.0503 3.61662 10.7221 3.97567 11.3153 4.32277C11.9914 4.71842 12.7272 5.19323 13.469 5.69754Z" stroke="white" stroke-width="1.25"/>
</svg>
