<svg width="20" height="20" viewBox="0 0 20 20" fill="none" xmlns="http://www.w3.org/2000/svg">
<path d="M4.1665 9.58333C4.1665 8.01198 4.1665 7.22631 4.65466 6.73816C5.14281 6.25 5.92849 6.25 7.49984 6.25H12.4998C14.0712 6.25 14.8569 6.25 15.345 6.73816C15.8332 7.22631 15.8332 8.01198 15.8332 9.58333V10.4167C15.8332 11.988 15.8332 12.7737 15.345 13.2618C14.8569 13.75 14.0712 13.75 12.4998 13.75H7.49984C5.92849 13.75 5.14281 13.75 4.65466 13.2618C4.1665 12.7737 4.1665 11.988 4.1665 10.4167V9.58333Z" stroke="black" stroke-opacity="0.91" stroke-width="1.25"/>
<path d="M15.8332 1.66663V2.08329C15.8332 3.23389 14.9004 4.16663 13.7498 4.16663H6.24984C5.09924 4.16663 4.1665 3.23389 4.1665 2.08329V1.66663" stroke="black" stroke-opacity="0.91" stroke-width="1.25" stroke-linecap="round"/>
<path d="M15.8332 18.3334V17.9167C15.8332 16.7661 14.9004 15.8334 13.7498 15.8334H6.24984C5.09924 15.8334 4.1665 16.7661 4.1665 17.9167V18.3334" stroke="black" stroke-opacity="0.91" stroke-width="1.25" stroke-linecap="round"/>
</svg>
