<svg width="28" height="28" viewBox="0 0 28 28" fill="none" xmlns="http://www.w3.org/2000/svg">
<path fill-rule="evenodd" clip-rule="evenodd" d="M3.79199 13.9883C3.79199 13.7562 3.88418 13.5337 4.04827 13.3696C4.21237 13.2055 4.43493 13.1133 4.66699 13.1133L23.3337 13.1273C23.5657 13.1273 23.7883 13.2195 23.9524 13.3836C24.1165 13.5477 24.2087 13.7702 24.2087 14.0023C24.2087 14.2343 24.1165 14.4569 23.9524 14.621C23.7883 14.7851 23.5657 14.8773 23.3337 14.8773L4.66699 14.8644C4.43493 14.8644 4.21237 14.7723 4.04827 14.6082C3.88418 14.4441 3.79199 14.2215 3.79199 13.9894" fill="#1B17B3"/>
<path fill-rule="evenodd" clip-rule="evenodd" d="M12.262 7.72001C11.6576 9.28451 11.2645 11.5058 11.2645 14.0025C11.2645 16.4992 11.6576 18.7205 12.2631 20.285C12.5665 21.0702 12.9071 21.6453 13.2408 22.0093C13.5745 22.3733 13.8311 22.4585 14.0003 22.4585C14.1695 22.4585 14.4273 22.3733 14.761 22.0093C15.0935 21.6453 15.4341 21.0702 15.7375 20.285C16.3441 18.7205 16.7361 16.4992 16.7361 14.0025C16.7361 11.5058 16.343 9.28451 15.7375 7.72001C15.4341 6.93484 15.0935 6.35968 14.7598 5.99568C14.4261 5.63168 14.1695 5.54651 14.0003 5.54651C13.8311 5.54651 13.5733 5.63168 13.2408 5.99568C12.9083 6.35968 12.5653 6.93484 12.262 7.72001ZM11.9505 4.81501C12.4813 4.23284 13.1731 3.79651 14.0015 3.79651C14.8298 3.79651 15.5216 4.23284 16.0525 4.81384C16.5833 5.39368 17.0208 6.18468 17.3708 7.08884C18.072 8.90068 18.4873 11.346 18.4873 14.0025C18.4873 16.659 18.072 19.1043 17.3708 20.9162C17.0208 21.8192 16.5833 22.6113 16.0525 23.1912C15.5216 23.771 14.8298 24.2085 14.0015 24.2085C13.1731 24.2085 12.4813 23.771 11.9505 23.1912C11.4196 22.6113 10.9821 21.8203 10.6321 20.9162C9.93096 19.1043 9.51562 16.659 9.51562 14.0025C9.51562 11.346 9.93096 8.90068 10.6321 7.08884C10.9821 6.18468 11.4196 5.39484 11.9505 4.81501Z" fill="#1B17B3"/>
<path fill-rule="evenodd" clip-rule="evenodd" d="M14.0003 5.53711C12.8896 5.53711 11.7897 5.75589 10.7635 6.18096C9.73725 6.60603 8.80481 7.22907 8.01938 8.0145C7.23395 8.79993 6.61092 9.73237 6.18584 10.7586C5.76077 11.7848 5.54199 12.8847 5.54199 13.9954C5.54199 15.1062 5.76077 16.2061 6.18584 17.2323C6.61092 18.2585 7.23395 19.191 8.01938 19.9764C8.80481 20.7618 9.73725 21.3849 10.7635 21.8099C11.7897 22.235 12.8896 22.4538 14.0003 22.4538C16.2436 22.4538 18.395 21.5626 19.9813 19.9764C21.5675 18.3901 22.4587 16.2387 22.4587 13.9954C22.4587 11.7522 21.5675 9.60074 19.9813 8.0145C18.395 6.42825 16.2436 5.53711 14.0003 5.53711ZM3.79199 13.9954C3.79199 11.288 4.86751 8.69149 6.78194 6.77706C8.69638 4.86263 11.2929 3.78711 14.0003 3.78711C16.7077 3.78711 19.3043 4.86263 21.2187 6.77706C23.1331 8.69149 24.2087 11.288 24.2087 13.9954C24.2087 16.7029 23.1331 19.2994 21.2187 21.2138C19.3043 23.1283 16.7077 24.2038 14.0003 24.2038C11.2929 24.2038 8.69638 23.1283 6.78194 21.2138C4.86751 19.2994 3.79199 16.7029 3.79199 13.9954Z" fill="#1B17B3"/>
</svg>
