<svg width="24" height="24" viewBox="0 0 24 24" fill="none" xmlns="http://www.w3.org/2000/svg">
<path d="M12 22.0001C17.5228 22.0001 22 17.5229 22 12.0001C22 6.47727 17.5228 2.00012 12 2.00012C6.47715 2.00012 2 6.47727 2 12.0001C2 13.379 2.27907 14.6927 2.78382 15.8878C3.06278 16.5482 3.20226 16.8785 3.21953 17.1281C3.2368 17.3777 3.16334 17.6522 3.01642 18.2013L2 22.0001L5.79877 20.9837C6.34788 20.8368 6.62244 20.7633 6.87202 20.7806C7.12161 20.7978 7.45185 20.9373 8.11235 21.2163C9.30745 21.721 10.6211 22.0001 12 22.0001Z" stroke="#1B17B3" stroke-width="1.5" stroke-linejoin="round"/>
<path d="M8.58815 12.3772L9.45909 11.2955C9.82616 10.8396 10.2799 10.4152 10.3155 9.80814C10.3244 9.65482 10.2166 8.96645 10.0008 7.58974C9.91601 7.04869 9.41086 6.99988 8.97332 6.99988C8.40314 6.99988 8.11805 6.99988 7.83495 7.12919C7.47714 7.29263 7.10979 7.75219 7.02917 8.13721C6.96539 8.44184 7.01279 8.65175 7.10759 9.07157C7.51023 10.8547 8.45481 12.6157 9.91948 14.0804C11.3842 15.5451 13.1452 16.4897 14.9283 16.8923C15.3481 16.9871 15.558 17.0345 15.8627 16.9707C16.2477 16.8901 16.7072 16.5228 16.8707 16.1649C17 15.8818 17 15.5968 17 15.0266C17 14.589 16.9512 14.0839 16.4101 13.9991C15.0334 13.7833 14.3451 13.6755 14.1917 13.6844C13.5847 13.72 13.1603 14.1737 12.7044 14.5408L11.6227 15.4117" stroke="#1B17B3" stroke-width="1.5"/>
</svg>
