<svg width="18" height="18" viewBox="0 0 18 18" fill="none" xmlns="http://www.w3.org/2000/svg">
<g clip-path="url(#clip0_188_4703)">
<path d="M16.5 16.5L1.5 16.5" stroke="#1B17B3" stroke-width="1.125" stroke-linecap="round"/>
<path d="M15.75 16.5V4.5C15.75 3.08579 15.75 2.37868 15.3107 1.93934C14.8714 1.5 14.1643 1.5 12.75 1.5H11.25C9.83582 1.5 9.12872 1.5 8.68938 1.93934C8.33572 2.293 8.26675 2.82016 8.2533 3.75" stroke="#1B17B3" stroke-width="1.125"/>
<path d="M11.25 16.5V6.75C11.25 5.33579 11.25 4.62868 10.8107 4.18934C10.3713 3.75 9.66421 3.75 8.25 3.75H5.25C3.83579 3.75 3.12868 3.75 2.68934 4.18934C2.25 4.62868 2.25 5.33579 2.25 6.75V16.5" stroke="#1B17B3" stroke-width="1.125"/>
<path d="M6.75 16.5V14.25" stroke="#1B17B3" stroke-width="1.125" stroke-linecap="round"/>
<path d="M4.5 6H9" stroke="#1B17B3" stroke-width="1.125" stroke-linecap="round"/>
<path d="M4.5 8.25H9" stroke="#1B17B3" stroke-width="1.125" stroke-linecap="round"/>
<path d="M4.5 10.5H9" stroke="#1B17B3" stroke-width="1.125" stroke-linecap="round"/>
</g>
<defs>
<clipPath id="clip0_188_4703">
<rect width="18" height="18" rx="2.25" fill="white"/>
</clipPath>
</defs>
</svg>
