<svg width="196" height="45" viewBox="0 0 196 45" fill="none" xmlns="http://www.w3.org/2000/svg">
<path d="M32.8686 0.0324707H11.1903C5.02795 0.0324707 0.0323486 5.02807 0.0323486 11.1905V32.8688C0.0323486 39.0311 5.02795 44.0267 11.1903 44.0267H32.8686C39.031 44.0267 44.0266 39.0311 44.0266 32.8688V11.1905C44.0266 5.02807 39.031 0.0324707 32.8686 0.0324707Z" fill="#1B17B3" stroke="#FEFEFE" stroke-width="0.0646992" stroke-miterlimit="22.9256"/>
<path fill-rule="evenodd" clip-rule="evenodd" d="M29.4641 18.0606H32.5704C30.9658 13.7695 26.8265 10.7141 21.9732 10.7141C15.7271 10.7141 10.6637 15.7746 10.6637 22.0171C10.6637 28.2597 15.7271 33.3202 21.9732 33.3202C26.8265 33.3202 30.9658 30.2648 32.5704 25.9737H29.4641C28.0428 28.656 25.2215 30.4833 21.9731 30.4833C17.2947 30.4833 13.5021 26.6928 13.5021 22.0171C13.5021 17.3413 17.2947 13.5509 21.9731 13.5509C25.2215 13.5509 28.0428 15.3782 29.4641 18.0604V18.0606Z" fill="#FEFEFE"/>
<path fill-rule="evenodd" clip-rule="evenodd" d="M30.1459 20.3118L33.0151 22.0172L30.1459 23.7227V20.3118Z" fill="#FEFEFE"/>
<path fill-rule="evenodd" clip-rule="evenodd" d="M22.0706 15.218C25.828 15.218 28.8739 18.2622 28.8739 22.0174C28.8739 25.7727 25.828 28.8168 22.0706 28.8168C18.3132 28.8168 15.2673 25.7727 15.2673 22.0174C15.2673 18.2622 18.3132 15.218 22.0706 15.218ZM17.8166 21.2651V24.9786C17.8166 25.4058 18.3645 25.968 18.7806 25.968C19.1631 25.968 20.4809 25.9848 20.7631 25.9569C20.799 25.7829 20.7769 24.1352 20.7769 23.8181C20.7769 23.4565 20.7309 23.1514 20.8862 22.8783C21.1724 22.3752 21.8486 22.4864 22.4416 22.4864C22.7527 22.4864 23.0056 22.676 23.1212 22.8583C23.2836 23.1145 23.2612 23.4531 23.2612 23.7923C23.2612 24.1144 23.2386 25.7798 23.2753 25.9537C23.5128 25.995 25.0012 25.9682 25.3606 25.9679C25.7754 25.9679 26.3246 25.4121 26.3246 24.9786V21.265C26.3246 21.1113 26.2328 21.0433 26.14 20.9754C26.044 20.9052 25.9631 20.8421 25.8772 20.7738L23.2422 18.7654C22.8797 18.4926 22.4346 18.0578 22.0578 18.0578C21.7213 18.0578 21.1632 18.5598 20.899 18.7653L19.8477 19.5719C19.6737 19.7126 19.5018 19.8331 19.3205 19.9732C19.1394 20.1133 18.9789 20.2367 18.7942 20.3752L18.003 20.9773C17.915 21.0452 17.8167 21.1155 17.8167 21.265L17.8166 21.2651Z" fill="#FEFEFE"/>
<path d="M50.5926 23.1605C50.5926 21.5585 50.8266 20.1455 51.2946 18.9215C51.7806 17.6975 52.4286 16.6805 53.2386 15.8705C54.0666 15.0425 55.0206 14.4215 56.1006 14.0075C57.1986 13.5935 58.3596 13.3865 59.5836 13.3865C60.7896 13.3865 61.9236 13.5935 62.9856 14.0075C64.0656 14.4215 65.0106 15.0425 65.8206 15.8705C66.6306 16.6805 67.2696 17.6975 67.7376 18.9215C68.2236 20.1455 68.4666 21.5585 68.4666 23.1605C68.4666 24.7625 68.2236 26.1755 67.7376 27.3995C67.2696 28.6235 66.6306 29.6495 65.8206 30.4775C65.0106 31.2875 64.0656 31.8995 62.9856 32.3135C61.9236 32.7275 60.7896 32.9345 59.5836 32.9345C58.3596 32.9345 57.1986 32.7275 56.1006 32.3135C55.0206 31.8995 54.0666 31.2875 53.2386 30.4775C52.4286 29.6495 51.7806 28.6235 51.2946 27.3995C50.8266 26.1755 50.5926 24.7625 50.5926 23.1605ZM53.3466 23.1605C53.3466 24.2945 53.4906 25.3295 53.7786 26.2655C54.0666 27.1835 54.4716 27.9665 54.9936 28.6145C55.5336 29.2625 56.1816 29.7665 56.9376 30.1265C57.7116 30.4685 58.5756 30.6395 59.5296 30.6395C60.4836 30.6395 61.3386 30.4685 62.0946 30.1265C62.8506 29.7665 63.4896 29.2625 64.0116 28.6145C64.5516 27.9665 64.9656 27.1835 65.2536 26.2655C65.5416 25.3295 65.6856 24.2945 65.6856 23.1605C65.6856 22.0265 65.5416 21.0005 65.2536 20.0825C64.9656 19.1465 64.5516 18.3545 64.0116 17.7065C63.4896 17.0585 62.8506 16.5635 62.0946 16.2215C61.3386 15.8615 60.4836 15.6815 59.5296 15.6815C58.5756 15.6815 57.7116 15.8615 56.9376 16.2215C56.1816 16.5635 55.5336 17.0585 54.9936 17.7065C54.4716 18.3545 54.0666 19.1465 53.7786 20.0825C53.4906 21.0005 53.3466 22.0265 53.3466 23.1605ZM72.2013 18.8945C72.7773 18.7505 73.5423 18.5975 74.4963 18.4355C75.4503 18.2735 76.5483 18.1925 77.7903 18.1925C78.9063 18.1925 79.8333 18.3545 80.5713 18.6785C81.3093 18.9845 81.8943 19.4255 82.3263 20.0015C82.7763 20.5595 83.0913 21.2345 83.2713 22.0265C83.4513 22.8185 83.5413 23.6915 83.5413 24.6455V32.5295H81.0303V25.1855C81.0303 24.3215 80.9673 23.5835 80.8413 22.9715C80.7333 22.3595 80.5443 21.8645 80.2743 21.4865C80.0043 21.1085 79.6443 20.8385 79.1943 20.6765C78.7443 20.4965 78.1863 20.4065 77.5203 20.4065C77.2503 20.4065 76.9713 20.4155 76.6833 20.4335C76.3953 20.4515 76.1163 20.4785 75.8463 20.5145C75.5943 20.5325 75.3603 20.5595 75.1443 20.5955C74.9463 20.6315 74.8023 20.6585 74.7123 20.6765V32.5295H72.2013V18.8945ZM93.8072 32.8535C92.6732 32.8535 91.6742 32.6735 90.8102 32.3135C89.9642 31.9535 89.2442 31.4495 88.6502 30.8015C88.0742 30.1535 87.6422 29.3885 87.3542 28.5065C87.0662 27.6065 86.9222 26.6165 86.9222 25.5365C86.9222 24.4565 87.0752 23.4665 87.3812 22.5665C87.7052 21.6665 88.1552 20.8925 88.7312 20.2445C89.3072 19.5785 90.0092 19.0655 90.8372 18.7055C91.6832 18.3275 92.6192 18.1385 93.6452 18.1385C94.2752 18.1385 94.9052 18.1925 95.5352 18.3005C96.1652 18.4085 96.7682 18.5795 97.3442 18.8135L96.7772 20.9465C96.3992 20.7665 95.9582 20.6225 95.4542 20.5145C94.9682 20.4065 94.4462 20.3525 93.8882 20.3525C92.4842 20.3525 91.4042 20.7935 90.6482 21.6755C89.9102 22.5575 89.5412 23.8445 89.5412 25.5365C89.5412 26.2925 89.6222 26.9855 89.7842 27.6155C89.9642 28.2455 90.2342 28.7855 90.5942 29.2355C90.9722 29.6855 91.4492 30.0365 92.0252 30.2885C92.6012 30.5225 93.3032 30.6395 94.1312 30.6395C94.7972 30.6395 95.4002 30.5765 95.9402 30.4505C96.4802 30.3245 96.9032 30.1895 97.2092 30.0455L97.5602 32.1515C97.4162 32.2415 97.2092 32.3315 96.9392 32.4215C96.6692 32.4935 96.3632 32.5565 96.0212 32.6105C95.6792 32.6825 95.3102 32.7365 94.9142 32.7725C94.5362 32.8265 94.1672 32.8535 93.8072 32.8535ZM99.4729 25.5365C99.4729 24.2945 99.6529 23.2145 100.013 22.2965C100.373 21.3605 100.85 20.5865 101.444 19.9745C102.038 19.3625 102.722 18.9035 103.496 18.5975C104.27 18.2915 105.062 18.1385 105.872 18.1385C107.762 18.1385 109.211 18.7325 110.219 19.9205C111.227 21.0905 111.731 22.8815 111.731 25.2935C111.731 25.4015 111.731 25.5455 111.731 25.7255C111.731 25.8875 111.722 26.0405 111.704 26.1845H102.092C102.2 27.6425 102.623 28.7495 103.361 29.5055C104.099 30.2615 105.251 30.6395 106.817 30.6395C107.699 30.6395 108.437 30.5675 109.031 30.4235C109.643 30.2615 110.102 30.1085 110.408 29.9645L110.759 32.0705C110.453 32.2325 109.913 32.4035 109.139 32.5835C108.383 32.7635 107.519 32.8535 106.547 32.8535C105.323 32.8535 104.261 32.6735 103.361 32.3135C102.479 31.9355 101.75 31.4225 101.174 30.7745C100.598 30.1265 100.166 29.3615 99.8779 28.4795C99.6079 27.5795 99.4729 26.5985 99.4729 25.5365ZM109.112 24.1595C109.13 23.0255 108.842 22.0985 108.248 21.3785C107.672 20.6405 106.871 20.2715 105.845 20.2715C105.269 20.2715 104.756 20.3885 104.306 20.6225C103.874 20.8385 103.505 21.1265 103.199 21.4865C102.893 21.8465 102.65 22.2605 102.47 22.7285C102.308 23.1965 102.2 23.6735 102.146 24.1595H109.112ZM130.146 29.9375C129.966 29.5055 129.723 28.9565 129.417 28.2905C129.129 27.6245 128.814 26.9045 128.472 26.1305C128.13 25.3565 127.761 24.5645 127.365 23.7545C126.987 22.9265 126.627 22.1525 126.285 21.4325C125.943 20.6945 125.619 20.0375 125.313 19.4615C125.025 18.8855 124.791 18.4445 124.611 18.1385C124.413 20.2625 124.251 22.5665 124.125 25.0505C123.999 27.5165 123.891 30.0095 123.801 32.5295H121.236C121.308 30.9095 121.389 29.2805 121.479 27.6425C121.569 25.9865 121.668 24.3665 121.776 22.7825C121.902 21.1805 122.028 19.6235 122.154 18.1115C122.298 16.5995 122.451 15.1685 122.613 13.8185H124.908C125.394 14.6105 125.916 15.5465 126.474 16.6265C127.032 17.7065 127.59 18.8405 128.148 20.0285C128.706 21.1985 129.246 22.3775 129.768 23.5655C130.29 24.7355 130.767 25.8065 131.199 26.7785C131.631 25.8065 132.108 24.7355 132.63 23.5655C133.152 22.3775 133.692 21.1985 134.25 20.0285C134.808 18.8405 135.366 17.7065 135.924 16.6265C136.482 15.5465 137.004 14.6105 137.49 13.8185H139.785C140.397 19.8485 140.856 26.0855 141.162 32.5295H138.597C138.507 30.0095 138.399 27.5165 138.273 25.0505C138.147 22.5665 137.985 20.2625 137.787 18.1385C137.607 18.4445 137.364 18.8855 137.058 19.4615C136.77 20.0375 136.455 20.6945 136.113 21.4325C135.771 22.1525 135.402 22.9265 135.006 23.7545C134.628 24.5645 134.268 25.3565 133.926 26.1305C133.584 26.9045 133.26 27.6245 132.954 28.2905C132.666 28.9565 132.432 29.5055 132.252 29.9375H130.146ZM144.324 25.5365C144.324 24.2945 144.504 23.2145 144.864 22.2965C145.224 21.3605 145.701 20.5865 146.295 19.9745C146.889 19.3625 147.573 18.9035 148.347 18.5975C149.121 18.2915 149.913 18.1385 150.723 18.1385C152.613 18.1385 154.062 18.7325 155.07 19.9205C156.078 21.0905 156.582 22.8815 156.582 25.2935C156.582 25.4015 156.582 25.5455 156.582 25.7255C156.582 25.8875 156.573 26.0405 156.555 26.1845H146.943C147.051 27.6425 147.474 28.7495 148.212 29.5055C148.95 30.2615 150.102 30.6395 151.668 30.6395C152.55 30.6395 153.288 30.5675 153.882 30.4235C154.494 30.2615 154.953 30.1085 155.259 29.9645L155.61 32.0705C155.304 32.2325 154.764 32.4035 153.99 32.5835C153.234 32.7635 152.37 32.8535 151.398 32.8535C150.174 32.8535 149.112 32.6735 148.212 32.3135C147.33 31.9355 146.601 31.4225 146.025 30.7745C145.449 30.1265 145.017 29.3615 144.729 28.4795C144.459 27.5795 144.324 26.5985 144.324 25.5365ZM153.963 24.1595C153.981 23.0255 153.693 22.0985 153.099 21.3785C152.523 20.6405 151.722 20.2715 150.696 20.2715C150.12 20.2715 149.607 20.3885 149.157 20.6225C148.725 20.8385 148.356 21.1265 148.05 21.4865C147.744 21.8465 147.501 22.2605 147.321 22.7285C147.159 23.1965 147.051 23.6735 146.997 24.1595H153.963ZM169.261 21.4595C168.955 21.2075 168.514 20.9645 167.938 20.7305C167.362 20.4965 166.732 20.3795 166.048 20.3795C165.328 20.3795 164.707 20.5145 164.185 20.7845C163.681 21.0365 163.267 21.3965 162.943 21.8645C162.619 22.3145 162.385 22.8545 162.241 23.4845C162.097 24.1145 162.025 24.7895 162.025 25.5095C162.025 27.1475 162.43 28.4165 163.24 29.3165C164.05 30.1985 165.13 30.6395 166.48 30.6395C167.164 30.6395 167.731 30.6125 168.181 30.5585C168.649 30.4865 169.009 30.4145 169.261 30.3425V21.4595ZM169.261 12.0095L171.772 11.5775V32.1245C171.196 32.2865 170.458 32.4485 169.558 32.6105C168.658 32.7725 167.623 32.8535 166.453 32.8535C165.373 32.8535 164.401 32.6825 163.537 32.3405C162.673 31.9985 161.935 31.5125 161.323 30.8825C160.711 30.2525 160.234 29.4875 159.892 28.5875C159.568 27.6695 159.406 26.6435 159.406 25.5095C159.406 24.4295 159.541 23.4395 159.811 22.5395C160.099 21.6395 160.513 20.8655 161.053 20.2175C161.593 19.5695 162.25 19.0655 163.024 18.7055C163.816 18.3455 164.716 18.1655 165.724 18.1655C166.534 18.1655 167.245 18.2735 167.857 18.4895C168.487 18.7055 168.955 18.9125 169.261 19.1105V12.0095ZM178.599 32.5295H176.088V18.4895H178.599V32.5295ZM177.33 15.9515C176.88 15.9515 176.493 15.8075 176.169 15.5195C175.863 15.2135 175.71 14.8085 175.71 14.3045C175.71 13.8005 175.863 13.4045 176.169 13.1165C176.493 12.8105 176.88 12.6575 177.33 12.6575C177.78 12.6575 178.158 12.8105 178.464 13.1165C178.788 13.4045 178.95 13.8005 178.95 14.3045C178.95 14.8085 178.788 15.2135 178.464 15.5195C178.158 15.8075 177.78 15.9515 177.33 15.9515ZM187.669 30.7205C188.263 30.7205 188.785 30.7115 189.235 30.6935C189.703 30.6575 190.09 30.6035 190.396 30.5315V26.3465C190.216 26.2565 189.919 26.1845 189.505 26.1305C189.109 26.0585 188.623 26.0225 188.047 26.0225C187.669 26.0225 187.264 26.0495 186.832 26.1035C186.418 26.1575 186.031 26.2745 185.671 26.4545C185.329 26.6165 185.041 26.8505 184.807 27.1565C184.573 27.4445 184.456 27.8315 184.456 28.3175C184.456 29.2175 184.744 29.8475 185.32 30.2075C185.896 30.5495 186.679 30.7205 187.669 30.7205ZM187.453 18.1385C188.461 18.1385 189.307 18.2735 189.991 18.5435C190.693 18.7955 191.251 19.1645 191.665 19.6505C192.097 20.1185 192.403 20.6855 192.583 21.3515C192.763 21.9995 192.853 22.7195 192.853 23.5115V32.2865C192.637 32.3225 192.331 32.3765 191.935 32.4485C191.557 32.5025 191.125 32.5565 190.639 32.6105C190.153 32.6645 189.622 32.7095 189.046 32.7455C188.488 32.7995 187.93 32.8265 187.372 32.8265C186.58 32.8265 185.851 32.7455 185.185 32.5835C184.519 32.4215 183.943 32.1695 183.457 31.8275C182.971 31.4675 182.593 30.9995 182.323 30.4235C182.053 29.8475 181.918 29.1545 181.918 28.3445C181.918 27.5705 182.071 26.9045 182.377 26.3465C182.701 25.7885 183.133 25.3385 183.673 24.9965C184.213 24.6545 184.843 24.4025 185.563 24.2405C186.283 24.0785 187.039 23.9975 187.831 23.9975C188.083 23.9975 188.344 24.0155 188.614 24.0515C188.884 24.0695 189.136 24.1055 189.37 24.1595C189.622 24.1955 189.838 24.2315 190.018 24.2675C190.198 24.3035 190.324 24.3305 190.396 24.3485V23.6465C190.396 23.2325 190.351 22.8275 190.261 22.4315C190.171 22.0175 190.009 21.6575 189.775 21.3515C189.541 21.0275 189.217 20.7755 188.803 20.5955C188.407 20.3975 187.885 20.2985 187.237 20.2985C186.409 20.2985 185.68 20.3615 185.05 20.4875C184.438 20.5955 183.979 20.7125 183.673 20.8385L183.376 18.7595C183.7 18.6155 184.24 18.4805 184.996 18.3545C185.752 18.2105 186.571 18.1385 187.453 18.1385Z" fill="#1B17B3"/>
</svg>
