<svg width="28" height="28" viewBox="0 0 28 28" fill="none" xmlns="http://www.w3.org/2000/svg">
<path d="M25.6667 14C25.6667 9.60018 25.6667 7.4003 24.2999 6.03346C22.9331 4.66663 20.7332 4.66663 16.3334 4.66663H11.6667C7.26697 4.66663 5.06709 4.66663 3.70025 6.03346C2.33342 7.4003 2.33342 9.60018 2.33342 14C2.33342 18.3997 2.33342 20.5996 3.70025 21.9665C5.06709 23.3333 7.26697 23.3333 11.6667 23.3333H16.3334C20.7332 23.3333 22.9331 23.3333 24.2999 21.9665C25.6667 20.5996 25.6667 18.3997 25.6667 14Z" stroke="#1B17B3" stroke-width="1.75"/>
<path d="M14.0001 11.6666V16.3333M16.0212 12.8333L11.9798 15.1666M11.98 12.8333L16.0215 15.1666" stroke="#1B17B3" stroke-width="1.75" stroke-linecap="round"/>
<path d="M20.1456 11.6666V16.3333M22.1667 12.8333L18.1253 15.1666M18.1255 12.8333L22.167 15.1666" stroke="#1B17B3" stroke-width="1.75" stroke-linecap="round"/>
<path d="M7.85384 11.6666V16.3333M9.875 12.8333L5.83355 15.1666M5.83382 12.8333L9.87528 15.1666" stroke="#1B17B3" stroke-width="1.75" stroke-linecap="round"/>
</svg>
