<svg width="375" height="428" viewBox="0 0 375 428" fill="none" xmlns="http://www.w3.org/2000/svg">
<g id="Frame 2147226392" clip-path="url(#clip0_288_9212)">
<rect width="375" height="428" fill="white"/>
<g id="Group">
<g id="_2669887059328">
<g id="Group_2">
<g id="Group_3">
<path id="Vector" d="M10.0212 77.0685L2.57846 61.4094C-1.37605 53.0896 0.478266 46.3436 8.34177 42.6066C15.746 39.0881 20.7921 41.4271 23.9697 48.111L32.6262 66.3249L37.2778 64.1131L28.3086 45.2432C24.6656 37.579 17.0621 33.2409 7.95529 37.5698C-0.104471 41.4008 -2.1682 48.8862 -0.665906 54.9186L-0.99469 55.0743L-5.82025 44.9196L-10.0134 46.9124L5.37056 79.2779L10.0221 77.0665L10.0212 77.0685ZM60.6487 53.8078C69.6918 49.5114 74.2129 40.7755 70.5082 32.9798L70.2584 32.455L65.6726 34.6352L65.8598 35.0284C68.5993 40.7938 65.964 46.0625 58.5608 49.581C49.9112 53.6924 43.9668 50.8153 40.1984 42.886C36.4301 34.9588 37.9536 28.5339 46.6031 24.4216C54.0063 20.9031 59.7555 22.1847 62.495 27.952L62.6822 28.3448L67.268 26.1647L67.0191 25.6407C63.3135 17.8449 53.6836 15.8347 44.6435 20.1312C34.2914 25.0508 30.8741 35.2695 35.5469 45.0966C40.2166 54.9247 50.2976 58.7274 60.6487 53.8078ZM98.3882 35.8713C107.428 31.5749 111.902 23.7447 108.694 16.9971L108.476 16.5387L103.825 18.75L104.042 19.2084C106.285 23.9257 104.086 28.4248 96.4852 32.0373C87.9034 36.1173 82.0825 33.5008 78.3637 26.3536L106.865 12.8078C106.655 11.8629 106.318 10.8169 105.759 9.63735C101.182 0.00751909 91.8175 -2.28908 82.3172 2.22588C71.8993 7.17686 68.6802 17.3016 73.351 27.1277C78.2403 37.4151 87.9713 40.8211 98.3892 35.8701L98.3882 35.8713ZM84.0875 6.12387C91.688 2.51129 97.7265 4.05924 100.964 10.8727C101.121 11.2014 101.276 11.5293 101.431 11.8551L76.9919 23.4716C73.958 16.2393 75.703 10.1087 84.0885 6.12387H84.0875Z" fill="#C5C6C6"/>
</g>
<g id="Group_4">
<path id="Vector_2" d="M121.948 77.0685L114.506 61.4094C110.551 53.0896 112.406 46.3436 120.27 42.6066C127.673 39.0881 132.72 41.4271 135.897 48.111L144.553 66.3249L149.205 64.1131L140.236 45.2432C136.594 37.579 128.99 33.2409 119.883 37.5698C111.824 41.4008 109.759 48.8862 111.261 54.9186L110.934 55.0743L106.107 44.9196L101.915 46.9124L117.298 79.2779L121.949 77.0665L121.948 77.0685ZM172.576 53.8078C181.619 49.5114 186.141 40.7755 182.435 32.9798L182.185 32.455L177.601 34.6352L177.787 35.0284C180.527 40.7938 177.892 46.0625 170.488 49.581C161.838 53.6924 155.894 50.8153 152.126 42.886C148.358 34.9588 149.881 28.5339 158.53 24.4216C165.934 20.9031 171.683 22.1847 174.422 27.952L174.609 28.3448L179.195 26.1647L178.946 25.6407C175.241 17.8449 165.612 15.8347 156.571 20.1312C146.219 25.0508 142.802 35.2695 147.474 45.0966C152.145 54.9247 162.225 58.7274 172.576 53.8078ZM210.315 35.8713C219.356 31.5749 223.829 23.7447 220.621 16.9971L220.403 16.5387L215.752 18.75L215.969 19.2084C218.212 23.9257 216.013 28.4248 208.412 32.0373C199.831 36.1173 194.01 33.5008 190.291 26.3536L218.792 12.8078C218.582 11.8629 218.247 10.8169 217.686 9.63735C213.109 0.00751909 203.745 -2.28908 194.244 2.22588C183.827 7.17686 180.608 17.3016 185.278 27.1277C190.167 37.4151 199.899 40.8211 210.316 35.8701L210.315 35.8713ZM196.015 6.12387C203.615 2.51129 209.654 4.05924 212.891 10.8727C213.048 11.2014 213.204 11.5293 213.359 11.8551L188.92 23.4716C185.885 16.2393 187.63 10.1087 196.016 6.12387H196.015Z" fill="#C5C6C6"/>
<g id="Group_5">
<path id="Vector_3" fill-rule="evenodd" clip-rule="evenodd" d="M95.94 61.3669L100.567 59.1685C95.1367 53.909 86.8058 52.2855 79.5787 55.721C70.2746 60.1429 66.3171 71.271 70.7389 80.5751C75.1608 89.8781 86.2869 93.8345 95.592 89.4147C102.821 85.9781 106.821 78.494 106.173 70.9613L101.546 73.1616C101.328 78.1662 98.4215 82.8856 93.5818 85.1871C86.6136 88.4982 78.2797 85.535 74.9666 78.5648C71.6545 71.5966 74.6186 63.2615 81.5878 59.9494C86.4265 57.6499 91.9248 58.3765 95.94 61.3669Z" fill="#C5C6C6"/>
<path id="Vector_4" fill-rule="evenodd" clip-rule="evenodd" d="M98.5519 64.2397L104.032 64.7507L100.966 69.3233L98.5519 64.2397Z" fill="#C5C6C6"/>
<path id="Vector_5" fill-rule="evenodd" clip-rule="evenodd" d="M82.9139 62.3644C88.5103 59.7048 95.2034 62.0852 97.863 67.6826C100.523 73.28 98.1433 79.9732 92.5469 82.6328C86.9494 85.2924 80.2554 82.9128 77.5958 77.3154C74.9362 71.7169 77.3165 65.024 82.9139 62.3644ZM80.8603 74.3899L83.4906 79.9247C83.7931 80.562 85.007 81.0112 85.6282 80.7178C86.1977 80.4457 88.1715 79.5389 88.5721 79.2971C88.5023 79.0119 87.3035 76.5729 87.0779 76.0994C86.8209 75.5612 86.5367 75.1394 86.5751 74.6215C86.6449 73.6695 87.7304 73.3559 88.6136 72.936C89.0779 72.7165 89.5877 72.82 89.8892 73.0092C90.3131 73.2762 90.5195 73.7971 90.7593 74.3029C90.9879 74.7835 92.1331 77.28 92.3111 77.5137C92.6945 77.4065 94.8918 76.314 95.428 76.0591C96.0451 75.7657 96.469 74.5487 96.1625 73.9022L93.5332 68.3667C93.4239 68.137 93.2388 68.1016 93.0527 68.0651C92.8605 68.0287 92.6945 67.9924 92.5175 67.9509L87.1699 66.8227C86.4365 66.673 85.4654 66.3403 84.9039 66.6073C84.4021 66.8451 83.9276 67.9894 83.6788 68.482L82.6853 70.4295C82.5255 70.7623 82.3545 71.0637 82.1835 71.3996C82.0136 71.7375 81.8609 72.0347 81.6848 72.3706L80.9311 73.8283C80.8492 73.9912 80.7531 74.1673 80.8583 74.3899H80.8603Z" fill="#C5C6C6"/>
</g>
</g>
<g id="Group_6">
<path id="Vector_6" d="M233.874 77.0685L226.433 61.4094C222.477 53.0896 224.333 46.3436 232.196 42.6066C239.599 39.0881 244.646 41.4271 247.823 48.111L256.48 66.3249L261.131 64.1131L252.163 45.2432C248.52 37.579 240.916 33.2409 231.81 37.5698C223.75 41.4008 221.686 48.8862 223.187 54.9186L222.86 55.0743L218.034 44.9196L213.841 46.9124L229.224 79.2779L233.875 77.0665L233.874 77.0685ZM284.503 53.8078C293.545 49.5114 298.067 40.7755 294.362 32.9798L294.113 32.455L289.527 34.6352L289.714 35.0284C292.454 40.7938 289.818 46.0625 282.414 49.581C273.764 53.6924 267.82 50.8153 264.052 42.886C260.284 34.9588 261.807 28.5339 270.456 24.4216C277.861 20.9031 283.609 22.1847 286.348 27.952L286.535 28.3448L291.122 26.1647L290.872 25.6407C287.167 17.8449 277.538 15.8347 268.497 20.1312C258.145 25.0508 254.728 35.2695 259.4 45.0966C264.071 54.9247 274.152 58.7274 284.503 53.8078ZM322.241 35.8713C331.282 31.5749 335.755 23.7447 332.548 16.9971L332.329 16.5387L327.678 18.75L327.897 19.2084C330.139 23.9257 327.939 28.4248 320.34 32.0373C311.757 36.1173 305.937 33.5008 302.217 26.3536L330.718 12.8078C330.51 11.8629 330.173 10.8169 329.613 9.63735C325.036 0.00751909 315.671 -2.28908 306.17 2.22588C295.754 7.17686 292.535 17.3016 297.204 27.1277C302.095 37.4151 311.826 40.8211 322.242 35.8701L322.241 35.8713ZM307.941 6.12387C315.541 2.51129 321.58 4.05924 324.818 10.8727C324.974 11.2014 325.13 11.5293 325.285 11.8551L300.846 23.4716C297.811 16.2393 299.556 10.1087 307.942 6.12387H307.941Z" fill="#C5C6C6"/>
<g id="Group_7">
<path id="Vector_7" fill-rule="evenodd" clip-rule="evenodd" d="M207.866 61.3669L212.493 59.1685C207.063 53.909 198.733 52.2855 191.505 55.721C182.201 60.1429 178.243 71.271 182.665 80.5751C187.087 89.8781 198.214 93.8345 207.518 89.4147C214.747 85.9781 218.748 78.494 218.099 70.9613L213.472 73.1616C213.255 78.1662 210.348 82.8856 205.508 85.1871C198.54 88.4982 190.206 85.535 186.893 78.5648C183.582 71.5966 186.545 63.2615 193.515 59.9494C198.353 57.6499 203.851 58.3765 207.866 61.3669Z" fill="#C5C6C6"/>
<path id="Vector_8" fill-rule="evenodd" clip-rule="evenodd" d="M210.478 64.2397L215.959 64.7507L212.893 69.3233L210.478 64.2397Z" fill="#C5C6C6"/>
<path id="Vector_9" fill-rule="evenodd" clip-rule="evenodd" d="M194.84 62.3644C200.436 59.7048 207.129 62.0852 209.789 67.6826C212.449 73.28 210.069 79.9732 204.473 82.6328C198.875 85.2924 192.181 82.9128 189.522 77.3154C186.863 71.7169 189.243 65.024 194.84 62.3644ZM192.786 74.3899L195.417 79.9247C195.719 80.562 196.933 81.0112 197.554 80.7178C198.124 80.4457 200.097 79.5389 200.498 79.2971C200.428 79.0119 199.229 76.5729 199.004 76.0994C198.748 75.5612 198.463 75.1394 198.501 74.6215C198.571 73.6695 199.656 73.3559 200.54 72.936C201.004 72.7165 201.514 72.82 201.815 73.0092C202.239 73.2762 202.446 73.7971 202.685 74.3029C202.914 74.7835 204.06 77.28 204.237 77.5137C204.621 77.4065 206.818 76.314 207.354 76.0591C207.972 75.7657 208.396 74.5487 208.088 73.9022L205.459 68.3667C205.35 68.137 205.165 68.1016 204.979 68.0651C204.786 68.0287 204.621 67.9924 204.444 67.9509L199.096 66.8227C198.362 66.673 197.391 66.3403 196.83 66.6073C196.328 66.8451 195.854 67.9894 195.605 68.482L194.611 70.4295C194.451 70.7623 194.281 71.0637 194.111 71.3996C193.94 71.7375 193.788 72.0347 193.611 72.3706L192.857 73.8283C192.775 73.9912 192.679 74.1673 192.784 74.3899H192.786Z" fill="#C5C6C6"/>
</g>
</g>
<g id="Group_8">
<path id="Vector_10" d="M345.801 77.0685L338.359 61.4094C334.404 53.0896 336.259 46.3436 344.122 42.6066C351.526 39.0881 356.572 41.4271 359.75 48.111L368.406 66.3249L373.057 64.1131L364.089 45.2432C360.446 37.579 352.842 33.2409 343.736 37.5698C335.676 41.4008 333.612 48.8862 335.114 54.9186L334.786 55.0743L329.96 44.9196L325.767 46.9124L341.151 79.2779L345.803 77.0665L345.801 77.0685ZM396.429 53.8078C405.472 49.5114 409.993 40.7755 406.288 32.9798L406.039 32.455L401.453 34.6352L401.64 35.0284C404.38 40.7938 401.744 46.0625 394.341 49.581C385.692 53.6924 379.746 50.8153 375.979 42.886C372.21 34.9588 373.733 28.5339 382.382 24.4216C389.787 20.9031 395.535 22.1847 398.274 27.952L398.461 28.3448L403.048 26.1647L402.798 25.6407C399.094 17.8449 389.464 15.8347 380.423 20.1312C370.071 25.0508 366.654 35.2695 371.327 45.0966C375.997 54.9247 386.078 58.7274 396.429 53.8078ZM434.168 35.8713C443.208 31.5749 447.681 23.7447 444.474 16.9971L444.256 16.5387L439.604 18.75L439.823 19.2084C442.065 23.9257 439.865 28.4248 432.266 32.0373C423.683 36.1173 417.863 33.5008 414.143 26.3536L442.644 12.8078C442.436 11.8629 442.099 10.8169 441.539 9.63735C436.962 0.00751909 427.598 -2.28908 418.098 2.22588C407.68 7.17686 404.461 17.3016 409.131 27.1277C414.021 37.4151 423.752 40.8211 434.17 35.8701L434.168 35.8713ZM419.868 6.12387C427.467 2.51129 433.506 4.05924 436.744 10.8727C436.901 11.2014 437.056 11.5293 437.211 11.8551L412.772 23.4716C409.738 16.2393 411.482 10.1087 419.869 6.12387H419.868Z" fill="#C5C6C6"/>
<g id="Group_9">
<path id="Vector_11" fill-rule="evenodd" clip-rule="evenodd" d="M319.793 61.3669L324.42 59.1685C318.99 53.909 310.66 52.2855 303.433 55.721C294.128 60.1429 290.171 71.271 294.593 80.5751C299.014 89.8781 310.141 93.8345 319.445 89.4147C326.675 85.9781 330.675 78.494 330.026 70.9613L325.399 73.1616C325.182 78.1662 322.276 82.8856 317.436 85.1871C310.467 88.4982 302.134 85.535 298.821 78.5648C295.509 71.5966 298.472 63.2615 305.442 59.9494C310.281 57.6499 315.778 58.3765 319.793 61.3669Z" fill="#C5C6C6"/>
<path id="Vector_12" fill-rule="evenodd" clip-rule="evenodd" d="M322.404 64.2397L327.885 64.7507L324.82 69.3233L322.404 64.2397Z" fill="#C5C6C6"/>
<path id="Vector_13" fill-rule="evenodd" clip-rule="evenodd" d="M306.767 62.3644C312.364 59.7048 319.058 62.0852 321.717 67.6826C324.377 73.28 321.997 79.9732 316.4 82.6328C310.803 85.2924 304.11 82.9128 301.45 77.3154C298.791 71.7169 301.17 65.024 306.767 62.3644ZM304.714 74.3899L307.345 79.9247C307.646 80.562 308.86 81.0112 309.482 80.7178C310.052 80.4457 312.025 79.5389 312.425 79.2971C312.356 79.0119 311.157 76.5729 310.931 76.0994C310.675 75.5612 310.391 75.1394 310.429 74.6215C310.498 73.6695 311.584 73.3559 312.468 72.936C312.931 72.7165 313.441 72.82 313.744 73.0092C314.166 73.2762 314.374 73.7971 314.613 74.3029C314.841 74.7835 315.987 77.28 316.164 77.5137C316.548 77.4065 318.745 76.314 319.281 76.0591C319.899 75.7657 320.323 74.5487 320.017 73.9022L317.387 68.3667C317.278 68.137 317.092 68.1016 316.907 68.0651C316.714 68.0287 316.548 67.9924 316.372 67.9509L311.023 66.8227C310.29 66.673 309.32 66.3403 308.757 66.6073C308.256 66.8451 307.781 67.9894 307.533 68.482L306.539 70.4295C306.379 70.7623 306.208 71.0637 306.038 71.3996C305.867 71.7375 305.715 72.0347 305.538 72.3706L304.786 73.8283C304.703 73.9912 304.606 74.1673 304.712 74.3899H304.714Z" fill="#C5C6C6"/>
</g>
</g>
</g>
<g id="Group_10">
<g id="Group_11">
<path id="Vector_14" d="M-40.1555 163.482L-47.5982 147.823C-51.5527 139.503 -49.6974 132.756 -41.8349 129.02C-34.4307 125.502 -29.3845 127.841 -26.207 134.525L-17.5503 152.738L-12.8988 150.527L-21.8681 131.657C-25.511 123.992 -33.1144 119.655 -42.2212 123.983C-50.281 127.815 -52.3448 135.3 -50.8425 141.332L-51.1713 141.488L-55.9968 131.333L-60.1901 133.326L-44.8061 165.691L-40.1545 163.48L-40.1555 163.482ZM10.4722 140.221C19.5153 135.925 24.0373 127.189 20.3317 119.394L20.0817 118.868L15.4959 121.048L15.6832 121.442C18.4227 127.207 15.7873 132.476 8.38412 135.995C-0.265427 140.106 -6.20982 137.229 -9.97819 129.3C-13.7466 121.372 -12.2231 114.947 -3.57352 110.835C3.82968 107.316 9.57893 108.598 12.3185 114.366L12.5056 114.758L17.0914 112.578L16.8425 112.054C13.1369 104.258 3.50706 102.248 -5.53299 106.545C-15.8851 111.464 -19.3026 121.682 -14.6298 131.51C-9.96003 141.338 0.121082 145.141 10.4722 140.221ZM48.2115 122.285C57.2516 117.989 61.7251 110.158 58.5172 103.411L58.2996 102.952L53.6481 105.164L53.8656 105.622C56.1084 110.339 53.9091 114.838 46.3086 118.451C37.7268 122.531 31.9058 119.915 28.187 112.767L56.6881 99.2215C56.4787 98.2766 56.1417 97.2306 55.5823 96.051C51.0056 86.4202 41.6409 84.1248 32.1405 88.6388C21.7226 93.5898 18.5036 103.715 23.1744 113.541C28.0636 123.828 37.7946 127.235 48.2125 122.284L48.2115 122.285ZM33.9109 92.5364C41.5114 88.9248 47.5499 90.4725 50.7872 97.286C50.944 97.6147 51.0998 97.9426 51.2556 98.2684L26.8153 109.885C23.7814 102.653 25.5264 96.5222 33.9119 92.5364H33.9109Z" fill="#C5C6C6"/>
</g>
<g id="Group_12">
<path id="Vector_15" d="M71.7707 163.482L64.328 147.823C60.3735 139.503 62.2289 132.756 70.0924 129.02C77.4956 125.502 82.5426 127.841 85.7192 134.525L94.3758 152.738L99.0273 150.527L90.0581 131.657C86.4162 123.992 78.8127 119.655 69.7059 123.983C61.6461 127.815 59.5814 135.3 61.0837 141.332L60.7559 141.488L55.9294 131.333L51.7371 133.326L67.1202 165.691L71.7716 163.48L71.7707 163.482ZM122.398 140.221C131.441 135.925 135.963 127.189 132.258 119.394L132.008 118.868L127.423 121.048L127.609 121.442C130.35 127.207 127.714 132.476 120.31 135.995C111.661 140.106 105.716 137.229 101.948 129.3C98.1806 121.372 99.7032 114.947 108.353 110.835C115.757 107.316 121.505 108.598 124.245 114.366L124.432 114.758L129.018 112.578L128.769 112.054C125.063 104.258 115.434 102.248 106.393 106.545C96.041 111.464 92.6247 121.682 97.2965 131.51C101.967 141.338 112.047 145.141 122.398 140.221ZM160.138 122.285C169.179 117.989 173.651 110.158 170.443 103.411L170.226 102.952L165.574 105.164L165.792 105.622C168.035 110.339 165.835 114.838 158.235 118.451C149.653 122.531 143.832 119.915 140.113 112.767L168.614 99.2215C168.405 98.2766 168.069 97.2306 167.509 96.051C162.932 86.4202 153.567 84.1248 144.067 88.6388C133.65 93.5898 130.431 103.715 135.1 113.541C139.99 123.828 149.722 127.235 160.139 122.284L160.138 122.285ZM145.837 92.5364C153.438 88.9248 159.476 90.4725 162.713 97.286C162.87 97.6147 163.026 97.9426 163.182 98.2684L138.742 109.885C135.707 102.653 137.453 96.5222 145.838 92.5364H145.837Z" fill="#C5C6C6"/>
<g id="Group_13">
<path id="Vector_16" fill-rule="evenodd" clip-rule="evenodd" d="M45.7634 147.781L50.3907 145.583C44.9602 140.323 36.6292 138.699 29.402 142.135C20.098 146.557 16.1404 157.684 20.5623 166.989C24.9842 176.293 36.1102 180.249 45.4153 175.829C52.6445 172.393 56.6447 164.908 55.9962 157.376L51.3689 159.576C51.1514 164.58 48.245 169.3 43.4053 171.6C36.4371 174.912 28.1031 171.949 24.79 164.979C21.4778 158.011 24.442 149.676 31.4112 146.364C36.2499 144.065 41.7482 144.791 45.7634 147.781Z" fill="#C5C6C6"/>
<path id="Vector_17" fill-rule="evenodd" clip-rule="evenodd" d="M48.3743 150.654L53.8555 151.165L50.7891 155.738L48.3743 150.654Z" fill="#C5C6C6"/>
<path id="Vector_18" fill-rule="evenodd" clip-rule="evenodd" d="M32.7374 148.778C38.3338 146.119 45.0268 148.498 47.6864 154.097C50.346 159.694 47.9667 166.387 42.3703 169.047C36.7728 171.706 30.0788 169.327 27.4192 163.729C24.7596 158.131 27.14 151.438 32.7374 148.778ZM30.6838 160.804L33.3141 166.339C33.6166 166.976 34.8305 167.425 35.4517 167.132C36.0212 166.86 37.9949 165.953 38.3955 165.712C38.3257 165.426 37.127 162.987 36.9014 162.514C36.6444 161.975 36.3601 161.553 36.3985 161.035C36.4683 160.083 37.5538 159.77 38.437 159.35C38.9013 159.131 39.4113 159.234 39.7127 159.423C40.1366 159.69 40.3429 160.211 40.5827 160.717C40.8113 161.197 41.9565 163.694 42.1345 163.927C42.518 163.821 44.7153 162.728 45.2515 162.473C45.8686 162.179 46.2924 160.963 45.9859 160.316L43.3566 154.779C43.2474 154.551 43.0622 154.516 42.8761 154.479C42.6839 154.442 42.518 154.406 42.3409 154.365L36.9933 153.237C36.2599 153.087 35.2888 152.754 34.7273 153.021C34.2255 153.259 33.751 154.402 33.5022 154.896L32.5087 156.842C32.3489 157.176 32.1779 157.478 32.0069 157.814C31.837 158.151 31.6843 158.448 31.5082 158.785L30.7545 160.242C30.6726 160.405 30.5765 160.58 30.6817 160.804H30.6838Z" fill="#C5C6C6"/>
</g>
</g>
<g id="Group_14">
<path id="Vector_19" d="M183.697 163.482L176.255 147.823C172.3 139.503 174.155 132.756 182.018 129.02C189.423 125.502 194.469 127.841 197.645 134.525L206.302 152.738L210.953 150.527L201.985 131.657C198.342 123.992 190.739 119.655 181.632 123.983C173.572 127.815 171.509 135.3 173.011 141.332L172.682 141.488L167.856 131.333L163.663 133.326L179.046 165.691L183.698 163.48L183.697 163.482ZM234.325 140.221C243.368 135.925 247.89 127.189 244.184 119.394L243.935 118.868L239.349 121.048L239.536 121.442C242.276 127.207 239.641 132.476 232.236 135.995C223.587 140.106 217.642 137.229 213.874 129.3C210.107 121.372 211.629 114.947 220.279 110.835C227.683 107.316 233.431 108.598 236.171 114.366L236.358 114.758L240.945 112.578L240.695 112.054C236.989 104.258 227.36 102.248 218.319 106.545C207.967 111.464 204.551 121.682 209.223 131.51C213.893 141.338 223.974 145.141 234.325 140.221ZM272.064 122.285C281.105 117.989 285.577 110.158 282.37 103.411L282.152 102.952L277.5 105.164L277.719 105.622C279.962 110.339 277.761 114.838 270.162 118.451C261.579 122.531 255.759 119.915 252.039 112.767L280.54 99.2215C280.332 98.2766 279.995 97.2306 279.436 96.051C274.858 86.4202 265.493 84.1248 255.993 88.6388C245.576 93.5898 242.357 103.715 247.027 113.541C251.917 123.828 261.648 127.235 272.065 122.284L272.064 122.285ZM257.763 92.5364C265.364 88.9248 271.402 90.4725 274.64 97.286C274.796 97.6147 274.952 97.9426 275.108 98.2684L250.669 109.885C247.634 102.653 249.379 96.5222 257.764 92.5364H257.763Z" fill="#C5C6C6"/>
<g id="Group_15">
<path id="Vector_20" fill-rule="evenodd" clip-rule="evenodd" d="M157.689 147.781L162.317 145.583C156.886 140.323 148.556 138.699 141.328 142.135C132.024 146.557 128.067 157.684 132.488 166.989C136.91 176.293 148.037 180.249 157.341 175.829C164.571 172.393 168.572 164.908 167.922 157.376L163.295 159.576C163.078 164.58 160.171 169.3 155.331 171.6C148.363 174.912 140.029 171.949 136.716 164.979C133.405 158.011 136.368 149.676 143.338 146.364C148.176 144.065 153.674 144.791 157.689 147.781Z" fill="#C5C6C6"/>
<path id="Vector_21" fill-rule="evenodd" clip-rule="evenodd" d="M160.301 150.654L165.782 151.165L162.716 155.738L160.301 150.654Z" fill="#C5C6C6"/>
<path id="Vector_22" fill-rule="evenodd" clip-rule="evenodd" d="M144.664 148.778C150.26 146.119 156.953 148.498 159.613 154.097C162.272 159.694 159.893 166.387 154.296 169.047C148.699 171.706 142.005 169.327 139.346 163.729C136.687 158.131 139.066 151.438 144.664 148.778ZM142.61 160.804L145.24 166.339C145.543 166.976 146.757 167.425 147.378 167.132C147.947 166.86 149.921 165.953 150.322 165.712C150.252 165.426 149.053 162.987 148.828 162.514C148.572 161.975 148.287 161.553 148.325 161.035C148.395 160.083 149.48 159.77 150.363 159.35C150.828 159.131 151.337 159.234 151.639 159.423C152.063 159.69 152.269 160.211 152.509 160.717C152.738 161.197 153.884 163.694 154.061 163.927C154.444 163.821 156.641 162.728 157.178 162.473C157.796 162.179 158.22 160.963 157.912 160.316L155.283 154.779C155.175 154.551 154.988 154.516 154.802 154.479C154.61 154.442 154.444 154.406 154.267 154.365L148.92 153.237C148.186 153.087 147.215 152.754 146.654 153.021C146.152 153.259 145.677 154.402 145.429 154.896L144.435 156.842C144.275 157.176 144.104 157.478 143.934 157.814C143.763 158.151 143.611 158.448 143.434 158.785L142.682 160.242C142.599 160.405 142.503 160.58 142.608 160.804H142.61Z" fill="#C5C6C6"/>
</g>
</g>
<g id="Group_16">
<path id="Vector_23" d="M295.624 163.482L288.181 147.823C284.227 139.503 286.081 132.756 293.945 129.02C301.349 125.502 306.395 127.841 309.572 134.525L318.228 152.738L322.88 150.527L313.911 131.657C310.269 123.992 302.665 119.655 293.558 123.983C285.498 127.815 283.435 135.3 284.937 141.332L284.608 141.488L279.783 131.333L275.589 133.326L290.973 165.691L295.625 163.48L295.624 163.482ZM346.252 140.221C355.295 135.925 359.816 127.189 356.11 119.394L355.861 118.868L351.275 121.048L351.463 121.442C354.202 127.207 351.567 132.476 344.164 135.995C335.514 140.106 329.569 137.229 325.801 129.3C322.033 121.372 323.556 114.947 332.205 110.835C339.609 107.316 345.357 108.598 348.098 114.366L348.284 114.758L352.871 112.578L352.621 112.054C348.916 104.258 339.286 102.248 330.245 106.545C319.893 111.464 316.477 121.682 321.15 131.51C325.819 141.338 335.9 145.141 346.252 140.221ZM383.991 122.285C393.031 117.989 397.503 110.158 394.297 103.411L394.078 102.952L389.427 105.164L389.645 105.622C391.888 110.339 389.688 114.838 382.088 118.451C373.505 122.531 367.685 119.915 363.966 112.767L392.467 99.2215C392.258 98.2766 391.921 97.2306 391.362 96.051C386.784 86.4202 377.42 84.1248 367.92 88.6388C357.502 93.5898 354.283 103.715 358.954 113.541C363.843 123.828 373.574 127.235 383.992 122.284L383.991 122.285ZM369.69 92.5364C377.29 88.9248 383.328 90.4725 386.567 97.286C386.723 97.6147 386.878 97.9426 387.034 98.2684L362.595 109.885C359.561 102.653 361.305 96.5222 369.691 92.5364H369.69Z" fill="#C5C6C6"/>
<g id="Group_17">
<path id="Vector_24" fill-rule="evenodd" clip-rule="evenodd" d="M269.616 147.781L274.243 145.583C268.812 140.323 260.483 138.699 253.255 142.135C243.95 146.557 239.994 157.684 244.416 166.989C248.837 176.293 259.964 180.249 269.268 175.829C276.498 172.393 280.498 164.908 279.848 157.376L275.221 159.576C275.005 164.58 272.098 169.3 267.259 171.6C260.289 174.912 251.956 171.949 248.643 164.979C245.331 158.011 248.294 149.676 255.265 146.364C260.103 144.065 265.6 144.791 269.616 147.781Z" fill="#C5C6C6"/>
<path id="Vector_25" fill-rule="evenodd" clip-rule="evenodd" d="M272.227 150.654L277.708 151.165L274.642 155.738L272.227 150.654Z" fill="#C5C6C6"/>
<path id="Vector_26" fill-rule="evenodd" clip-rule="evenodd" d="M256.59 148.778C262.186 146.119 268.88 148.498 271.54 154.097C274.2 159.694 271.819 166.387 266.223 169.047C260.625 171.706 253.932 169.327 251.273 163.729C248.613 158.131 250.992 151.438 256.59 148.778ZM254.536 160.804L257.167 166.339C257.469 166.976 258.683 167.425 259.304 167.132C259.875 166.86 261.847 165.953 262.248 165.712C262.178 165.426 260.979 162.987 260.754 162.514C260.498 161.975 260.214 161.553 260.252 161.035C260.321 160.083 261.406 159.77 262.29 159.35C262.755 159.131 263.264 159.234 263.566 159.423C263.989 159.69 264.196 160.211 264.435 160.717C264.664 161.197 265.81 163.694 265.987 163.927C266.37 163.821 268.568 162.728 269.104 162.473C269.722 162.179 270.146 160.963 269.839 160.316L267.21 154.779C267.101 154.551 266.915 154.516 266.729 154.479C266.536 154.442 266.37 154.406 266.194 154.365L260.846 153.237C260.112 153.087 259.142 152.754 258.58 153.021C258.079 153.259 257.604 154.402 257.356 154.896L256.361 156.842C256.201 157.176 256.03 157.478 255.86 157.814C255.689 158.151 255.538 158.448 255.361 158.785L254.608 160.242C254.525 160.405 254.429 160.58 254.534 160.804H254.536Z" fill="#C5C6C6"/>
</g>
</g>
<g id="Group_18">
<g id="Group_19">
<path id="Vector_27" fill-rule="evenodd" clip-rule="evenodd" d="M381.543 147.781L386.169 145.583C380.74 140.323 372.409 138.699 365.182 142.135C355.877 146.557 351.92 157.684 356.342 166.989C360.764 176.293 371.89 180.249 381.194 175.829C388.424 172.393 392.424 164.908 391.776 157.376L387.148 159.576C386.931 164.58 384.024 169.3 379.185 171.6C372.217 174.912 363.883 171.949 360.57 164.979C357.257 158.011 360.222 149.676 367.191 146.364C372.029 144.065 377.527 144.791 381.543 147.781Z" fill="#C5C6C6"/>
<path id="Vector_28" fill-rule="evenodd" clip-rule="evenodd" d="M368.517 148.778C374.113 146.119 380.806 148.498 383.466 154.097C386.126 159.694 383.745 166.387 378.149 169.047C372.551 171.706 365.858 169.327 363.199 163.729C360.539 158.131 362.918 151.438 368.517 148.778ZM366.463 160.804L369.094 166.339C369.395 166.976 370.61 167.425 371.23 167.132C371.801 166.86 373.774 165.953 374.174 165.712C374.105 165.426 372.905 162.987 372.681 162.514C372.424 161.975 372.14 161.553 372.178 161.035C372.248 160.083 373.333 159.77 374.217 159.35C374.681 159.131 375.191 159.234 375.492 159.423C375.916 159.69 376.122 160.211 376.361 160.717C376.59 161.197 377.736 163.694 377.914 163.927C378.297 163.821 380.495 162.728 381.031 162.473C381.648 162.179 382.072 160.963 381.765 160.316L379.136 154.779C379.027 154.551 378.841 154.516 378.656 154.479C378.462 154.442 378.297 154.406 378.121 154.365L372.772 153.237C372.039 153.087 371.068 152.754 370.507 153.021C370.005 153.259 369.531 154.402 369.282 154.896L368.288 156.842C368.127 157.176 367.958 157.478 367.787 157.814C367.616 158.151 367.464 158.448 367.288 158.785L366.534 160.242C366.452 160.405 366.355 160.58 366.461 160.804H366.463Z" fill="#C5C6C6"/>
</g>
</g>
</g>
<g id="Group_20">
<g id="Group_21">
<path id="Vector_29" d="M10.0212 252.658L2.57846 236.998C-1.37605 228.678 0.478266 221.933 8.34177 218.197C15.746 214.678 20.7921 217.017 23.9697 223.701L32.6262 241.914L37.2778 239.703L28.3086 220.833C24.6656 213.169 17.0621 208.831 7.95529 213.16C-0.104471 216.99 -2.1682 224.475 -0.665906 230.508L-0.99469 230.664L-5.82025 220.508L-10.0134 222.502L5.37056 254.867L10.0221 252.656L10.0212 252.658ZM60.6487 229.397C69.6918 225.101 74.2129 216.366 70.5082 208.569L70.2584 208.045L65.6726 210.225L65.8598 210.618C68.5993 216.384 65.964 221.651 58.5608 225.17C49.9112 229.282 43.9668 226.404 40.1984 218.476C36.4301 210.549 37.9536 204.122 46.6031 200.011C54.0063 196.493 59.7555 197.775 62.495 203.542L62.6822 203.934L67.268 201.753L67.0191 201.23C63.3135 193.434 53.6836 191.425 44.6435 195.721C34.2914 200.641 30.8741 210.858 35.5469 220.686C40.2166 230.513 50.2976 234.317 60.6487 229.397ZM98.3882 211.461C107.428 207.165 111.902 199.335 108.694 192.587L108.476 192.129L103.825 194.34L104.042 194.798C106.285 199.516 104.086 204.014 96.4852 207.627C87.9034 211.707 82.0825 209.091 78.3637 201.944L106.865 188.398C106.655 187.453 106.318 186.407 105.759 185.227C101.182 175.596 91.8175 173.301 82.3172 177.815C71.8993 182.766 68.6802 192.891 73.351 202.717C78.2403 213.005 87.9713 216.411 98.3892 211.46L98.3882 211.461ZM84.0875 181.713C91.688 178.1 97.7265 179.649 100.964 186.462C101.121 186.79 101.276 187.119 101.431 187.444L76.9919 199.06C73.958 191.829 75.703 185.699 84.0885 181.713H84.0875Z" fill="#C5C6C6"/>
</g>
<g id="Group_22">
<path id="Vector_30" d="M121.948 252.658L114.506 236.998C110.551 228.678 112.406 221.933 120.27 218.197C127.673 214.678 132.72 217.017 135.897 223.701L144.553 241.914L149.205 239.703L140.236 220.833C136.594 213.169 128.99 208.831 119.883 213.16C111.824 216.99 109.759 224.475 111.261 230.508L110.934 230.664L106.107 220.508L101.915 222.502L117.298 254.867L121.949 252.656L121.948 252.658ZM172.576 229.397C181.619 225.101 186.141 216.366 182.435 208.569L182.185 208.045L177.601 210.225L177.787 210.618C180.527 216.384 177.892 221.651 170.488 225.17C161.838 229.282 155.894 226.404 152.126 218.476C148.358 210.549 149.881 204.122 158.53 200.011C165.934 196.493 171.683 197.775 174.422 203.542L174.609 203.934L179.195 201.753L178.946 201.23C175.241 193.434 165.612 191.425 156.571 195.721C146.219 200.641 142.802 210.858 147.474 220.686C152.145 230.513 162.225 234.317 172.576 229.397ZM210.315 211.461C219.356 207.165 223.829 199.335 220.621 192.587L220.403 192.129L215.752 194.34L215.969 194.798C218.212 199.516 216.013 204.014 208.412 207.627C199.831 211.707 194.01 209.091 190.291 201.944L218.792 188.398C218.582 187.453 218.247 186.407 217.686 185.227C213.109 175.596 203.745 173.301 194.244 177.815C183.827 182.766 180.608 192.891 185.278 202.717C190.167 213.005 199.899 216.411 210.316 211.46L210.315 211.461ZM196.015 181.713C203.615 178.1 209.654 179.649 212.891 186.462C213.048 186.79 213.204 187.119 213.359 187.444L188.92 199.06C185.885 191.829 187.63 185.699 196.016 181.713H196.015Z" fill="#C5C6C6"/>
<g id="Group_23">
<path id="Vector_31" fill-rule="evenodd" clip-rule="evenodd" d="M95.94 236.958L100.567 234.759C95.1367 229.5 86.8058 227.875 79.5787 231.312C70.2746 235.734 66.3171 246.86 70.7389 256.165C75.1608 265.468 86.2869 269.425 95.592 265.005C102.821 261.569 106.821 254.085 106.173 246.552L101.546 248.751C101.328 253.756 98.4215 258.476 93.5818 260.777C86.6136 264.089 78.2797 261.125 74.9666 254.155C71.6545 247.187 74.6186 238.853 81.5878 235.54C86.4265 233.241 91.9248 233.967 95.94 236.958Z" fill="#C5C6C6"/>
<path id="Vector_32" fill-rule="evenodd" clip-rule="evenodd" d="M98.5519 239.831L104.032 240.341L100.966 244.914L98.5519 239.831Z" fill="#C5C6C6"/>
<path id="Vector_33" fill-rule="evenodd" clip-rule="evenodd" d="M82.9139 237.955C88.5103 235.296 95.2034 237.675 97.863 243.273C100.523 248.87 98.1433 255.564 92.5469 258.224C86.9494 260.883 80.2554 258.503 77.5958 252.906C74.9362 247.308 77.3165 240.615 82.9139 237.955ZM80.8603 249.981L83.4906 255.516C83.7931 256.153 85.007 256.602 85.6282 256.308C86.1977 256.036 88.1715 255.13 88.5721 254.889C88.5023 254.603 87.3035 252.164 87.0779 251.691C86.8209 251.152 86.5367 250.73 86.5751 250.212C86.6449 249.26 87.7304 248.947 88.6136 248.527C89.0779 248.307 89.5877 248.411 89.8892 248.6C90.3131 248.867 90.5195 249.388 90.7593 249.893C90.9879 250.373 92.1331 252.871 92.3111 253.104C92.6945 252.998 94.8918 251.905 95.428 251.649C96.0451 251.356 96.469 250.14 96.1625 249.492L93.5332 243.956C93.4239 243.728 93.2388 243.693 93.0527 243.656C92.8605 243.619 92.6945 243.583 92.5175 243.541L87.1699 242.414C86.4365 242.264 85.4654 241.931 84.9039 242.198C84.4021 242.436 83.9276 243.579 83.6788 244.073L82.6853 246.019C82.5255 246.353 82.3545 246.655 82.1835 246.991C82.0136 247.327 81.8609 247.625 81.6848 247.962L80.9311 249.419C80.8492 249.582 80.7531 249.757 80.8583 249.981H80.8603Z" fill="#C5C6C6"/>
</g>
</g>
<g id="Group_24">
<path id="Vector_34" d="M233.874 252.658L226.433 236.998C222.477 228.678 224.333 221.933 232.196 218.197C239.599 214.678 244.646 217.017 247.823 223.701L256.48 241.914L261.131 239.703L252.163 220.833C248.52 213.169 240.916 208.831 231.81 213.16C223.75 216.99 221.686 224.475 223.187 230.508L222.86 230.664L218.034 220.508L213.841 222.502L229.224 254.867L233.875 252.656L233.874 252.658ZM284.503 229.397C293.545 225.101 298.067 216.366 294.362 208.569L294.113 208.045L289.527 210.225L289.714 210.618C292.454 216.384 289.818 221.651 282.414 225.17C273.764 229.282 267.82 226.404 264.052 218.476C260.284 210.549 261.807 204.122 270.456 200.011C277.861 196.493 283.609 197.775 286.348 203.542L286.535 203.934L291.122 201.753L290.872 201.23C287.167 193.434 277.538 191.425 268.497 195.721C258.145 200.641 254.728 210.858 259.4 220.686C264.071 230.513 274.152 234.317 284.503 229.397ZM322.241 211.461C331.282 207.165 335.755 199.335 332.548 192.587L332.329 192.129L327.678 194.34L327.897 194.798C330.139 199.516 327.939 204.014 320.34 207.627C311.757 211.707 305.937 209.091 302.217 201.944L330.718 188.398C330.51 187.453 330.173 186.407 329.613 185.227C325.036 175.596 315.671 173.301 306.17 177.815C295.754 182.766 292.535 192.891 297.204 202.717C302.095 213.005 311.826 216.411 322.242 211.46L322.241 211.461ZM307.941 181.713C315.541 178.1 321.58 179.649 324.818 186.462C324.974 186.79 325.13 187.119 325.285 187.444L300.846 199.06C297.811 191.829 299.556 185.699 307.942 181.713H307.941Z" fill="#C5C6C6"/>
<g id="Group_25">
<path id="Vector_35" fill-rule="evenodd" clip-rule="evenodd" d="M207.866 236.958L212.493 234.759C207.063 229.5 198.733 227.875 191.505 231.312C182.201 235.734 178.243 246.86 182.665 256.165C187.087 265.468 198.214 269.425 207.518 265.005C214.747 261.569 218.748 254.085 218.099 246.552L213.472 248.751C213.255 253.756 210.348 258.476 205.508 260.777C198.54 264.089 190.206 261.125 186.893 254.155C183.582 247.187 186.545 238.853 193.515 235.54C198.353 233.241 203.851 233.967 207.866 236.958Z" fill="#C5C6C6"/>
<path id="Vector_36" fill-rule="evenodd" clip-rule="evenodd" d="M210.478 239.831L215.959 240.341L212.893 244.914L210.478 239.831Z" fill="#C5C6C6"/>
<path id="Vector_37" fill-rule="evenodd" clip-rule="evenodd" d="M194.84 237.955C200.436 235.296 207.129 237.675 209.789 243.273C212.449 248.87 210.069 255.564 204.473 258.224C198.875 260.883 192.181 258.503 189.522 252.906C186.863 247.308 189.243 240.615 194.84 237.955ZM192.786 249.981L195.417 255.516C195.719 256.153 196.933 256.602 197.554 256.308C198.124 256.036 200.097 255.13 200.498 254.889C200.428 254.603 199.229 252.164 199.004 251.691C198.748 251.152 198.463 250.73 198.501 250.212C198.571 249.26 199.656 248.947 200.54 248.527C201.004 248.307 201.514 248.411 201.815 248.6C202.239 248.867 202.446 249.388 202.685 249.893C202.914 250.373 204.06 252.871 204.237 253.104C204.621 252.998 206.818 251.905 207.354 251.649C207.972 251.356 208.396 250.14 208.088 249.492L205.459 243.956C205.35 243.728 205.165 243.693 204.979 243.656C204.786 243.619 204.621 243.583 204.444 243.541L199.096 242.414C198.362 242.264 197.391 241.931 196.83 242.198C196.328 242.436 195.854 243.579 195.605 244.073L194.611 246.019C194.451 246.353 194.281 246.655 194.111 246.991C193.94 247.327 193.788 247.625 193.611 247.962L192.857 249.419C192.775 249.582 192.679 249.757 192.784 249.981H192.786Z" fill="#C5C6C6"/>
</g>
</g>
<g id="Group_26">
<path id="Vector_38" d="M345.801 252.658L338.359 236.998C334.404 228.678 336.259 221.933 344.122 218.197C351.526 214.678 356.572 217.017 359.75 223.701L368.406 241.914L373.057 239.703L364.089 220.833C360.446 213.169 352.842 208.831 343.736 213.16C335.676 216.99 333.612 224.475 335.114 230.508L334.786 230.664L329.96 220.508L325.767 222.502L341.151 254.867L345.803 252.656L345.801 252.658ZM396.429 229.397C405.472 225.101 409.993 216.366 406.288 208.569L406.039 208.045L401.453 210.225L401.64 210.618C404.38 216.384 401.744 221.651 394.341 225.17C385.692 229.282 379.746 226.404 375.979 218.476C372.21 210.549 373.733 204.122 382.382 200.011C389.787 196.493 395.535 197.775 398.274 203.542L398.461 203.934L403.048 201.753L402.798 201.23C399.094 193.434 389.464 191.425 380.423 195.721C370.071 200.641 366.654 210.858 371.327 220.686C375.997 230.513 386.078 234.317 396.429 229.397ZM434.168 211.461C443.208 207.165 447.681 199.335 444.474 192.587L444.256 192.129L439.604 194.34L439.823 194.798C442.065 199.516 439.865 204.014 432.266 207.627C423.683 211.707 417.863 209.091 414.143 201.944L442.644 188.398C442.436 187.453 442.099 186.407 441.539 185.227C436.962 175.596 427.598 173.301 418.098 177.815C407.68 182.766 404.461 192.891 409.131 202.717C414.021 213.005 423.752 216.411 434.17 211.46L434.168 211.461ZM419.868 181.713C427.467 178.1 433.506 179.649 436.744 186.462C436.901 186.79 437.056 187.119 437.211 187.444L412.772 199.06C409.738 191.829 411.482 185.699 419.869 181.713H419.868Z" fill="#C5C6C6"/>
<g id="Group_27">
<path id="Vector_39" fill-rule="evenodd" clip-rule="evenodd" d="M319.793 236.958L324.42 234.759C318.99 229.5 310.66 227.875 303.433 231.312C294.128 235.734 290.171 246.86 294.593 256.165C299.014 265.468 310.141 269.425 319.445 265.005C326.675 261.569 330.675 254.085 330.026 246.552L325.399 248.751C325.182 253.756 322.276 258.476 317.436 260.777C310.467 264.089 302.134 261.125 298.821 254.155C295.509 247.187 298.472 238.853 305.442 235.54C310.281 233.241 315.778 233.967 319.793 236.958Z" fill="#C5C6C6"/>
<path id="Vector_40" fill-rule="evenodd" clip-rule="evenodd" d="M322.404 239.831L327.885 240.341L324.82 244.914L322.404 239.831Z" fill="#C5C6C6"/>
<path id="Vector_41" fill-rule="evenodd" clip-rule="evenodd" d="M306.767 237.955C312.364 235.296 319.058 237.675 321.717 243.273C324.377 248.87 321.997 255.564 316.4 258.224C310.803 260.883 304.11 258.503 301.45 252.906C298.791 247.308 301.17 240.615 306.767 237.955ZM304.714 249.981L307.345 255.516C307.646 256.153 308.86 256.602 309.482 256.308C310.052 256.036 312.025 255.13 312.425 254.889C312.356 254.603 311.157 252.164 310.931 251.691C310.675 251.152 310.391 250.73 310.429 250.212C310.498 249.26 311.584 248.947 312.468 248.527C312.931 248.307 313.441 248.411 313.744 248.6C314.166 248.867 314.374 249.388 314.613 249.893C314.841 250.373 315.987 252.871 316.164 253.104C316.548 252.998 318.745 251.905 319.281 251.649C319.899 251.356 320.323 250.14 320.017 249.492L317.387 243.956C317.278 243.728 317.092 243.693 316.907 243.656C316.714 243.619 316.548 243.583 316.372 243.541L311.023 242.414C310.29 242.264 309.32 241.931 308.757 242.198C308.256 242.436 307.781 243.579 307.533 244.073L306.539 246.019C306.379 246.353 306.208 246.655 306.038 246.991C305.867 247.327 305.715 247.625 305.538 247.962L304.786 249.419C304.703 249.582 304.606 249.757 304.712 249.981H304.714Z" fill="#C5C6C6"/>
</g>
</g>
</g>
<g id="Group_28">
<g id="Group_29">
<path id="Vector_42" d="M-40.1555 339.073L-47.5982 323.413C-51.5527 315.093 -49.6974 308.347 -41.8349 304.61C-34.4307 301.092 -29.3845 303.432 -26.207 310.115L-17.5503 328.329L-12.8988 326.118L-21.8681 307.247C-25.511 299.583 -33.1144 295.245 -42.2212 299.574C-50.281 303.404 -52.3448 310.889 -50.8425 316.923L-51.1713 317.079L-55.9968 306.923L-60.1901 308.917L-44.8061 341.282L-40.1545 339.071L-40.1555 339.073ZM10.4722 315.811C19.5153 311.516 24.0373 302.78 20.3317 294.984L20.0817 294.46L15.4959 296.638L15.6832 297.032C18.4227 302.798 15.7873 308.066 8.38412 311.584C-0.265427 315.697 -6.20982 312.819 -9.97819 304.89C-13.7466 296.963 -12.2231 290.537 -3.57352 286.426C3.82968 282.908 9.57893 284.189 12.3185 289.956L12.5056 290.348L17.0914 288.168L16.8425 287.645C13.1369 279.848 3.50706 277.839 -5.53299 282.136C-15.8851 287.055 -19.3026 297.273 -14.6298 307.101C-9.96003 316.928 0.121082 320.731 10.4722 315.811ZM48.2115 297.876C57.2516 293.579 61.7251 285.749 58.5172 279.002L58.2996 278.542L53.6481 280.754L53.8656 281.213C56.1084 285.93 53.9091 290.429 46.3086 294.041C37.7268 298.121 31.9058 295.506 28.187 288.357L56.6881 274.812C56.4787 273.866 56.1417 272.821 55.5823 271.642C51.0056 262.011 41.6409 259.715 32.1405 264.23C21.7226 269.181 18.5036 279.305 23.1744 289.132C28.0636 299.42 37.7946 302.826 48.2125 297.875L48.2115 297.876ZM33.9109 268.127C41.5114 264.515 47.5499 266.064 50.7872 272.877C50.944 273.205 51.0998 273.534 51.2556 273.858L26.8153 285.475C23.7814 278.243 25.5264 272.113 33.9119 268.127H33.9109Z" fill="#C5C6C6"/>
</g>
<g id="Group_30">
<path id="Vector_43" d="M71.7707 339.073L64.328 323.413C60.3735 315.093 62.2289 308.347 70.0924 304.61C77.4956 301.092 82.5426 303.432 85.7192 310.115L94.3758 328.329L99.0273 326.118L90.0581 307.247C86.4162 299.583 78.8127 295.245 69.7059 299.574C61.6461 303.404 59.5814 310.889 61.0837 316.923L60.7559 317.079L55.9294 306.923L51.7371 308.917L67.1202 341.282L71.7716 339.071L71.7707 339.073ZM122.398 315.811C131.441 311.516 135.963 302.78 132.258 294.984L132.008 294.46L127.423 296.638L127.609 297.032C130.35 302.798 127.714 308.066 120.31 311.584C111.661 315.697 105.716 312.819 101.948 304.89C98.1806 296.963 99.7032 290.537 108.353 286.426C115.757 282.908 121.505 284.189 124.245 289.956L124.432 290.348L129.018 288.168L128.769 287.645C125.063 279.848 115.434 277.839 106.393 282.136C96.041 287.055 92.6247 297.273 97.2965 307.101C101.967 316.928 112.047 320.731 122.398 315.811ZM160.138 297.876C169.179 293.579 173.651 285.749 170.443 279.002L170.226 278.542L165.574 280.754L165.792 281.213C168.035 285.93 165.835 290.429 158.235 294.041C149.653 298.121 143.832 295.506 140.113 288.357L168.614 274.812C168.405 273.866 168.069 272.821 167.509 271.642C162.932 262.011 153.567 259.715 144.067 264.23C133.65 269.181 130.431 279.305 135.1 289.132C139.99 299.42 149.722 302.826 160.139 297.875L160.138 297.876ZM145.837 268.127C153.438 264.515 159.476 266.064 162.713 272.877C162.87 273.205 163.026 273.534 163.182 273.858L138.742 285.475C135.707 278.243 137.453 272.113 145.838 268.127H145.837Z" fill="#C5C6C6"/>
<g id="Group_31">
<path id="Vector_44" fill-rule="evenodd" clip-rule="evenodd" d="M45.7634 323.371L50.3907 321.173C44.9602 315.912 36.6292 314.289 29.402 317.725C20.098 322.146 16.1404 333.274 20.5623 342.578C24.9842 351.881 36.1102 355.839 45.4153 351.418C52.6445 347.982 56.6447 340.498 55.9962 332.966L51.3689 335.165C51.1514 340.169 48.245 344.89 43.4053 347.19C36.4371 350.502 28.1031 347.538 24.79 340.569C21.4778 333.601 24.442 325.266 31.4112 321.954C36.2499 319.654 41.7482 320.381 45.7634 323.371Z" fill="#C5C6C6"/>
<path id="Vector_45" fill-rule="evenodd" clip-rule="evenodd" d="M48.3743 326.245L53.8555 326.755L50.7891 331.328L48.3743 326.245Z" fill="#C5C6C6"/>
<path id="Vector_46" fill-rule="evenodd" clip-rule="evenodd" d="M32.7374 324.37C38.3338 321.71 45.0268 324.089 47.6864 329.687C50.346 335.284 47.9667 341.978 42.3703 344.638C36.7728 347.297 30.0788 344.917 27.4192 339.32C24.7596 333.722 27.14 327.029 32.7374 324.37ZM30.6838 336.394L33.3141 341.93C33.6166 342.566 34.8305 343.016 35.4517 342.722C36.0212 342.451 37.9949 341.543 38.3955 341.303C38.3257 341.017 37.127 338.578 36.9014 338.104C36.6444 337.565 36.3601 337.144 36.3985 336.627C36.4683 335.675 37.5538 335.361 38.437 334.942C38.9013 334.722 39.4113 334.825 39.7127 335.014C40.1366 335.281 40.3429 335.802 40.5827 336.307C40.8113 336.788 41.9565 339.285 42.1345 339.518C42.518 339.412 44.7153 338.319 45.2515 338.063C45.8686 337.77 46.2924 336.553 45.9859 335.907L43.3566 330.371C43.2474 330.142 43.0622 330.106 42.8761 330.07C42.6839 330.033 42.518 329.997 42.3409 329.955L36.9933 328.828C36.2599 328.678 35.2888 328.345 34.7273 328.612C34.2255 328.85 33.751 329.993 33.5022 330.487L32.5087 332.433C32.3489 332.766 32.1779 333.069 32.0069 333.404C31.837 333.741 31.6843 334.039 31.5082 334.376L30.7545 335.833C30.6726 335.997 30.5765 336.172 30.6817 336.394H30.6838Z" fill="#C5C6C6"/>
</g>
</g>
<g id="Group_32">
<path id="Vector_47" d="M183.697 339.073L176.255 323.413C172.3 315.093 174.155 308.347 182.018 304.61C189.423 301.092 194.469 303.432 197.645 310.115L206.302 328.329L210.953 326.118L201.985 307.247C198.342 299.583 190.739 295.245 181.632 299.574C173.572 303.404 171.509 310.889 173.011 316.923L172.682 317.079L167.856 306.923L163.663 308.917L179.046 341.282L183.698 339.071L183.697 339.073ZM234.325 315.811C243.368 311.516 247.89 302.78 244.184 294.984L243.935 294.46L239.349 296.638L239.536 297.032C242.276 302.798 239.641 308.066 232.236 311.584C223.587 315.697 217.642 312.819 213.874 304.89C210.107 296.963 211.629 290.537 220.279 286.426C227.683 282.908 233.431 284.189 236.171 289.956L236.358 290.348L240.945 288.168L240.695 287.645C236.989 279.848 227.36 277.839 218.319 282.136C207.967 287.055 204.551 297.273 209.223 307.101C213.893 316.928 223.974 320.731 234.325 315.811ZM272.064 297.876C281.105 293.579 285.577 285.749 282.37 279.002L282.152 278.542L277.5 280.754L277.719 281.213C279.962 285.93 277.761 290.429 270.162 294.041C261.579 298.121 255.759 295.506 252.039 288.357L280.54 274.812C280.332 273.866 279.995 272.821 279.436 271.642C274.858 262.011 265.493 259.715 255.993 264.23C245.576 269.181 242.357 279.305 247.027 289.132C251.917 299.42 261.648 302.826 272.065 297.875L272.064 297.876ZM257.763 268.127C265.364 264.515 271.402 266.064 274.64 272.877C274.796 273.205 274.952 273.534 275.108 273.858L250.669 285.475C247.634 278.243 249.379 272.113 257.764 268.127H257.763Z" fill="#C5C6C6"/>
<g id="Group_33">
<path id="Vector_48" fill-rule="evenodd" clip-rule="evenodd" d="M157.689 323.371L162.317 321.173C156.886 315.912 148.556 314.289 141.328 317.725C132.024 322.146 128.067 333.274 132.488 342.578C136.91 351.881 148.037 355.839 157.341 351.418C164.571 347.982 168.572 340.498 167.922 332.966L163.295 335.165C163.078 340.169 160.171 344.89 155.331 347.19C148.363 350.502 140.029 347.538 136.716 340.569C133.405 333.601 136.368 325.266 143.338 321.954C148.176 319.654 153.674 320.381 157.689 323.371Z" fill="#C5C6C6"/>
<path id="Vector_49" fill-rule="evenodd" clip-rule="evenodd" d="M160.301 326.245L165.782 326.755L162.716 331.328L160.301 326.245Z" fill="#C5C6C6"/>
<path id="Vector_50" fill-rule="evenodd" clip-rule="evenodd" d="M144.664 324.37C150.26 321.71 156.953 324.089 159.613 329.687C162.272 335.284 159.893 341.978 154.296 344.638C148.699 347.297 142.005 344.917 139.346 339.32C136.687 333.722 139.066 327.029 144.664 324.37ZM142.61 336.394L145.24 341.93C145.543 342.566 146.757 343.016 147.378 342.722C147.947 342.451 149.921 341.543 150.322 341.303C150.252 341.017 149.053 338.578 148.828 338.104C148.572 337.565 148.287 337.144 148.325 336.627C148.395 335.675 149.48 335.361 150.363 334.942C150.828 334.722 151.337 334.825 151.639 335.014C152.063 335.281 152.269 335.802 152.509 336.307C152.738 336.788 153.884 339.285 154.061 339.518C154.444 339.412 156.641 338.319 157.178 338.063C157.796 337.77 158.22 336.553 157.912 335.907L155.283 330.371C155.175 330.142 154.988 330.106 154.802 330.07C154.61 330.033 154.444 329.997 154.267 329.955L148.92 328.828C148.186 328.678 147.215 328.345 146.654 328.612C146.152 328.85 145.677 329.993 145.429 330.487L144.435 332.433C144.275 332.766 144.104 333.069 143.934 333.404C143.763 333.741 143.611 334.039 143.434 334.376L142.682 335.833C142.599 335.997 142.503 336.172 142.608 336.394H142.61Z" fill="#C5C6C6"/>
</g>
</g>
<g id="Group_34">
<path id="Vector_51" d="M295.624 339.073L288.181 323.413C284.227 315.093 286.081 308.347 293.945 304.61C301.349 301.092 306.395 303.432 309.572 310.115L318.228 328.329L322.88 326.118L313.911 307.247C310.269 299.583 302.665 295.245 293.558 299.574C285.498 303.404 283.435 310.889 284.937 316.923L284.608 317.079L279.783 306.923L275.589 308.917L290.973 341.282L295.625 339.071L295.624 339.073ZM346.252 315.811C355.295 311.516 359.816 302.78 356.11 294.984L355.861 294.46L351.275 296.638L351.463 297.032C354.202 302.798 351.567 308.066 344.164 311.584C335.514 315.697 329.569 312.819 325.801 304.89C322.033 296.963 323.556 290.537 332.205 286.426C339.609 282.908 345.357 284.189 348.098 289.956L348.284 290.348L352.871 288.168L352.621 287.645C348.916 279.848 339.286 277.839 330.245 282.136C319.893 287.055 316.477 297.273 321.15 307.101C325.819 316.928 335.9 320.731 346.252 315.811ZM383.991 297.876C393.031 293.579 397.503 285.749 394.297 279.002L394.078 278.542L389.427 280.754L389.645 281.213C391.888 285.93 389.688 290.429 382.088 294.041C373.505 298.121 367.685 295.506 363.966 288.357L392.467 274.812C392.258 273.866 391.921 272.821 391.362 271.642C386.784 262.011 377.42 259.715 367.92 264.23C357.502 269.181 354.283 279.305 358.954 289.132C363.843 299.42 373.574 302.826 383.992 297.875L383.991 297.876ZM369.69 268.127C377.29 264.515 383.328 266.064 386.567 272.877C386.723 273.205 386.878 273.534 387.034 273.858L362.595 285.475C359.561 278.243 361.305 272.113 369.691 268.127H369.69Z" fill="#C5C6C6"/>
<g id="Group_35">
<path id="Vector_52" fill-rule="evenodd" clip-rule="evenodd" d="M269.616 323.371L274.243 321.173C268.812 315.912 260.483 314.289 253.255 317.725C243.95 322.146 239.994 333.274 244.416 342.578C248.837 351.881 259.964 355.839 269.268 351.418C276.498 347.982 280.498 340.498 279.848 332.966L275.221 335.165C275.005 340.169 272.098 344.89 267.259 347.19C260.289 350.502 251.956 347.538 248.643 340.569C245.331 333.601 248.294 325.266 255.265 321.954C260.103 319.654 265.6 320.381 269.616 323.371Z" fill="#C5C6C6"/>
<path id="Vector_53" fill-rule="evenodd" clip-rule="evenodd" d="M272.227 326.245L277.708 326.755L274.642 331.328L272.227 326.245Z" fill="#C5C6C6"/>
<path id="Vector_54" fill-rule="evenodd" clip-rule="evenodd" d="M256.59 324.37C262.186 321.71 268.88 324.089 271.54 329.687C274.2 335.284 271.819 341.978 266.223 344.638C260.625 347.297 253.932 344.917 251.273 339.32C248.613 333.722 250.992 327.029 256.59 324.37ZM254.536 336.394L257.167 341.93C257.469 342.566 258.683 343.016 259.304 342.722C259.875 342.451 261.847 341.543 262.248 341.303C262.178 341.017 260.979 338.578 260.754 338.104C260.498 337.565 260.214 337.144 260.252 336.627C260.321 335.675 261.406 335.361 262.29 334.942C262.755 334.722 263.264 334.825 263.566 335.014C263.989 335.281 264.196 335.802 264.435 336.307C264.664 336.788 265.81 339.285 265.987 339.518C266.37 339.412 268.568 338.319 269.104 338.063C269.722 337.77 270.146 336.553 269.839 335.907L267.21 330.371C267.101 330.142 266.915 330.106 266.729 330.07C266.536 330.033 266.37 329.997 266.194 329.955L260.846 328.828C260.112 328.678 259.142 328.345 258.58 328.612C258.079 328.85 257.604 329.993 257.356 330.487L256.361 332.433C256.201 332.766 256.03 333.069 255.86 333.404C255.689 333.741 255.538 334.039 255.361 334.376L254.608 335.833C254.525 335.997 254.429 336.172 254.534 336.394H254.536Z" fill="#C5C6C6"/>
</g>
</g>
<g id="Group_36">
<g id="Group_37">
<path id="Vector_55" fill-rule="evenodd" clip-rule="evenodd" d="M381.543 323.371L386.169 321.173C380.74 315.912 372.409 314.289 365.182 317.725C355.877 322.146 351.92 333.274 356.342 342.578C360.764 351.881 371.89 355.839 381.194 351.418C388.424 347.982 392.424 340.498 391.776 332.966L387.148 335.165C386.931 340.169 384.024 344.89 379.185 347.19C372.217 350.502 363.883 347.538 360.57 340.569C357.257 333.601 360.222 325.266 367.191 321.954C372.029 319.654 377.527 320.381 381.543 323.371Z" fill="#C5C6C6"/>
<path id="Vector_56" fill-rule="evenodd" clip-rule="evenodd" d="M368.517 324.37C374.113 321.71 380.806 324.089 383.466 329.687C386.126 335.284 383.745 341.978 378.149 344.638C372.551 347.297 365.858 344.917 363.199 339.32C360.539 333.722 362.918 327.029 368.517 324.37ZM366.463 336.394L369.094 341.93C369.395 342.566 370.61 343.016 371.23 342.722C371.801 342.451 373.774 341.543 374.174 341.303C374.105 341.017 372.905 338.578 372.681 338.104C372.424 337.565 372.14 337.144 372.178 336.627C372.248 335.675 373.333 335.361 374.217 334.942C374.681 334.722 375.191 334.825 375.492 335.014C375.916 335.281 376.122 335.802 376.361 336.307C376.59 336.788 377.736 339.285 377.914 339.518C378.297 339.412 380.495 338.319 381.031 338.063C381.648 337.77 382.072 336.553 381.765 335.907L379.136 330.371C379.027 330.142 378.841 330.106 378.656 330.07C378.462 330.033 378.297 329.997 378.121 329.955L372.772 328.828C372.039 328.678 371.068 328.345 370.507 328.612C370.005 328.85 369.531 329.993 369.282 330.487L368.288 332.433C368.127 332.766 367.958 333.069 367.787 333.404C367.616 333.741 367.464 334.039 367.288 334.376L366.534 335.833C366.452 335.997 366.355 336.172 366.461 336.394H366.463Z" fill="#C5C6C6"/>
</g>
</g>
</g>
<g id="Group_38">
<g id="Group_39">
<path id="Vector_57" d="M-91.3386 414.106L-98.7802 398.446C-102.736 390.126 -100.88 383.381 -93.0169 379.645C-85.6137 376.126 -80.5666 378.465 -77.3901 385.149L-68.7334 403.363L-64.0818 401.151L-73.0511 382.281C-76.693 374.617 -84.2966 370.279 -93.4034 374.608C-101.463 378.438 -103.528 385.923 -102.026 391.957L-102.353 392.112L-107.18 381.956L-111.372 383.95L-95.9891 416.316L-91.3376 414.104L-91.3386 414.106ZM-40.7109 390.845C-31.6678 386.549 -27.1458 377.814 -30.8514 370.017L-31.1013 369.493L-35.6861 371.673L-35.5 372.066C-32.7594 377.832 -35.3947 383.1 -42.7989 386.618C-51.4485 390.731 -57.3929 387.852 -61.1613 379.924C-64.9287 371.997 -63.4061 365.571 -54.7565 361.46C-47.3523 357.941 -41.6042 359.223 -38.8647 364.989L-38.6776 365.382L-34.0907 363.201L-34.3406 362.679C-38.0463 354.882 -47.6751 352.873 -56.7161 357.169C-67.0683 362.089 -70.4846 372.306 -65.8128 382.135C-61.142 391.962 -51.062 395.765 -40.7109 390.845ZM-2.9716 372.909C6.06946 368.613 10.5419 360.783 7.33501 354.035L7.11648 353.577L2.465 355.787L2.68353 356.246C4.92533 360.964 2.72602 365.463 -4.87445 369.075C-13.4562 373.155 -19.2772 370.539 -22.996 363.392L5.50497 349.846C5.29556 348.9 4.95972 347.855 4.39927 346.675C-0.177399 337.044 -9.54215 334.749 -19.0425 339.263C-29.4594 344.214 -32.6785 354.34 -28.0088 364.166C-23.1195 374.453 -13.3875 377.859 -2.9706 372.908L-2.9716 372.909ZM-17.2721 343.161C-9.67164 339.548 -3.63321 341.097 -0.395958 347.911C-0.239151 348.238 -0.0833664 348.567 0.0724258 348.892L-24.3669 360.508C-27.4018 353.277 -25.6566 347.147 -17.2711 343.161H-17.2721Z" fill="#C5C6C6"/>
</g>
<g id="Group_40">
<path id="Vector_58" d="M20.5876 414.106L13.146 398.446C9.19045 390.126 11.0458 383.381 18.9093 379.645C26.3135 376.126 31.3595 378.465 34.5361 385.149L43.1928 403.363L47.8443 401.151L38.8761 382.281C35.2332 374.617 27.6296 370.279 18.5228 374.608C10.463 378.438 8.39931 385.923 9.9016 391.957L9.57281 392.112L4.74726 381.956L0.554077 383.95L15.9371 416.316L20.5887 414.104L20.5876 414.106ZM71.2162 390.845C80.2583 386.549 84.7804 377.814 81.0747 370.017L80.8259 369.493L76.2401 371.673L76.4273 372.066C79.1668 377.832 76.5315 383.1 69.1273 386.618C60.4777 390.731 54.5333 387.852 50.765 379.924C46.9976 371.997 48.5201 365.571 57.1696 361.46C64.5738 357.941 70.322 359.223 73.0615 364.989L73.2487 365.382L77.8355 363.201L77.5855 362.679C73.8799 354.882 64.2511 352.873 55.2101 357.169C44.8579 362.089 41.4416 372.306 46.1134 382.135C50.7841 391.962 60.8651 395.765 71.2162 390.845ZM108.955 372.909C117.996 368.613 122.468 360.783 119.261 354.035L119.043 353.577L114.391 355.787L114.61 356.246C116.853 360.964 114.652 365.463 107.053 369.075C98.4699 373.155 92.65 370.539 88.9302 363.392L117.431 349.846C117.223 348.9 116.886 347.855 116.326 346.675C111.749 337.044 102.384 334.749 92.8837 339.263C82.4668 344.214 79.2478 354.34 83.9175 364.166C88.8078 374.453 98.5388 377.859 108.956 372.908L108.955 372.909ZM94.6541 343.161C102.255 339.548 108.293 341.097 111.531 347.911C111.687 348.238 111.843 348.567 111.999 348.892L87.5594 360.508C84.5245 353.277 86.2695 347.147 94.6551 343.161H94.6541Z" fill="#C5C6C6"/>
<g id="Group_41">
<path id="Vector_59" fill-rule="evenodd" clip-rule="evenodd" d="M-5.41977 398.406L-0.792496 396.207C-6.22299 390.947 -14.5528 389.323 -21.781 392.759C-31.0851 397.18 -35.0416 408.309 -30.6207 417.613C-26.1989 426.916 -15.0718 430.873 -5.76772 426.452C1.46148 423.017 5.46251 415.533 4.81303 408L0.185757 410.199C-0.030735 415.204 -2.93817 419.924 -7.77787 422.225C-14.7461 425.537 -23.08 422.573 -26.3931 415.604C-29.7042 408.635 -26.7411 400.3 -19.7709 396.988C-14.9332 394.689 -9.43498 395.415 -5.41977 398.406Z" fill="#C5C6C6"/>
<path id="Vector_60" fill-rule="evenodd" clip-rule="evenodd" d="M-2.80865 401.279L2.6724 401.79L-0.392863 406.362L-2.80865 401.279Z" fill="#C5C6C6"/>
</g>
</g>
<g id="Group_42">
<path id="Vector_61" d="M132.515 414.106L125.072 398.446C121.118 390.126 122.972 383.381 130.835 379.645C138.24 376.126 143.286 378.465 146.463 385.149L155.119 403.363L159.77 401.151L150.802 382.281C147.159 374.617 139.556 370.279 130.449 374.608C122.389 378.438 120.325 385.923 121.828 391.957L121.499 392.112L116.674 381.956L112.48 383.95L127.864 416.316L132.516 414.104L132.515 414.106ZM183.142 390.845C192.185 386.549 196.707 377.814 193.001 370.017L192.752 369.493L188.166 371.673L188.353 372.066C191.093 377.832 188.458 383.1 181.054 386.618C172.405 390.731 166.459 387.852 162.692 379.924C158.924 371.997 160.447 365.571 169.096 361.46C176.5 357.941 182.248 359.223 184.989 364.989L185.175 365.382L189.762 363.201L189.512 362.679C185.807 354.882 176.177 352.873 167.136 357.169C156.784 362.089 153.368 372.306 158.041 382.135C162.71 391.962 172.791 395.765 183.142 390.845ZM220.882 372.909C229.922 368.613 234.394 360.783 231.187 354.035L230.969 353.577L226.317 355.787L226.536 356.246C228.779 360.964 226.578 365.463 218.979 369.075C210.396 373.155 204.576 370.539 200.856 363.392L229.357 349.846C229.149 348.9 228.812 347.855 228.253 346.675C223.675 337.044 214.311 334.749 204.811 339.263C194.393 344.214 191.174 354.34 195.845 364.166C200.734 374.453 210.465 377.859 220.883 372.908L220.882 372.909ZM206.581 343.161C214.181 339.548 220.219 341.097 223.457 347.911C223.614 348.238 223.769 348.567 223.925 348.892L199.486 360.508C196.452 353.277 198.196 347.147 206.582 343.161H206.581Z" fill="#C5C6C6"/>
<g id="Group_43">
<path id="Vector_62" fill-rule="evenodd" clip-rule="evenodd" d="M106.507 398.406L111.134 396.207C105.703 390.947 97.3733 389.323 90.1462 392.759C80.8411 397.18 76.8845 408.309 81.3064 417.613C85.7273 426.916 96.8544 430.873 106.158 426.452C113.389 423.017 117.389 415.533 116.739 408L112.112 410.199C111.895 415.204 108.989 419.924 104.149 422.225C97.1801 425.537 88.8472 422.573 85.5341 415.604C82.222 408.635 85.1851 400.3 92.1553 396.988C96.994 394.689 102.491 395.415 106.507 398.406Z" fill="#C5C6C6"/>
<path id="Vector_63" fill-rule="evenodd" clip-rule="evenodd" d="M109.117 401.279L114.598 401.79L111.533 406.362L109.117 401.279Z" fill="#C5C6C6"/>
<path id="Vector_64" fill-rule="evenodd" clip-rule="evenodd" d="M93.4806 399.403C99.077 396.744 105.771 399.123 108.431 404.72C111.09 410.318 108.71 417.012 103.113 419.671C97.5161 422.331 90.823 419.951 88.1634 414.353C85.5038 408.756 87.8831 402.063 93.4806 399.403ZM91.4269 411.428L94.0582 416.963C94.3597 417.601 95.5737 418.05 96.1948 417.756C96.7654 417.484 98.7381 416.578 99.1387 416.336C99.0689 416.051 97.8701 413.612 97.6445 413.138C97.3886 412.599 97.1043 412.178 97.1427 411.66C97.2115 410.708 98.2971 410.395 99.1812 409.975C99.6456 409.755 100.154 409.858 100.457 410.048C100.88 410.315 101.087 410.836 101.326 411.341C101.554 411.821 102.701 414.319 102.878 414.551C103.261 414.445 105.458 413.353 105.995 413.097C106.613 412.803 107.037 411.587 106.73 410.94L104.101 405.404C103.992 405.176 103.805 405.14 103.62 405.104C103.427 405.066 103.261 405.031 103.085 404.989L97.7366 403.862C97.0031 403.712 96.0329 403.379 95.4705 403.646C94.9697 403.884 94.4943 405.027 94.2464 405.521L93.252 407.467C93.0921 407.8 92.9211 408.102 92.7512 408.438C92.5802 408.775 92.4285 409.073 92.2515 409.409L91.4988 410.866C91.4158 411.03 91.3198 411.205 91.425 411.428H91.4269Z" fill="#C5C6C6"/>
</g>
</g>
<g id="Group_44">
<path id="Vector_65" d="M244.441 414.106L236.998 398.446C233.044 390.126 234.898 383.381 242.762 379.645C250.166 376.126 255.212 378.465 258.39 385.149L267.046 403.363L271.698 401.151L262.729 382.281C259.086 374.617 251.482 370.279 242.375 374.608C234.316 378.438 232.252 385.923 233.754 391.957L233.425 392.112L228.6 381.956L224.406 383.95L239.791 416.316L244.442 414.104L244.441 414.106ZM295.069 390.845C304.112 386.549 308.633 377.814 304.928 370.017L304.678 369.493L300.093 371.673L300.28 372.066C303.019 377.832 300.384 383.1 292.981 386.618C284.331 390.731 278.387 387.852 274.618 379.924C270.85 371.997 272.373 365.571 281.023 361.46C288.426 357.941 294.175 359.223 296.915 364.989L297.101 365.382L301.688 363.201L301.439 362.679C297.733 354.882 288.104 352.873 279.064 357.169C268.71 362.089 265.294 372.306 269.967 382.135C274.637 391.962 284.718 395.765 295.069 390.845ZM332.808 372.909C341.848 368.613 346.322 360.783 343.114 354.035L342.895 353.577L338.244 355.787L338.462 356.246C340.705 360.964 338.506 365.463 330.905 369.075C322.323 373.155 316.502 370.539 312.784 363.392L341.285 349.846C341.075 348.9 340.738 347.855 340.179 346.675C335.602 337.044 326.237 334.749 316.737 339.263C306.319 344.214 303.1 354.34 307.771 364.166C312.66 374.453 322.391 377.859 332.809 372.908L332.808 372.909ZM318.507 343.161C326.108 339.548 332.146 341.097 335.384 347.911C335.541 348.238 335.696 348.567 335.851 348.892L311.412 360.508C308.378 353.277 310.123 347.147 318.508 343.161H318.507Z" fill="#C5C6C6"/>
<g id="Group_45">
<path id="Vector_66" fill-rule="evenodd" clip-rule="evenodd" d="M218.434 398.406L223.06 396.207C217.63 390.947 209.299 389.323 202.072 392.759C192.768 397.18 188.811 408.309 193.233 417.613C197.654 426.916 208.781 430.873 218.085 426.452C225.315 423.017 229.315 415.533 228.666 408L224.039 410.199C223.822 415.204 220.915 419.924 216.075 422.225C209.107 425.537 200.773 422.573 197.46 415.604C194.148 408.635 197.112 400.3 204.081 396.988C208.92 394.689 214.417 395.415 218.434 398.406Z" fill="#C5C6C6"/>
<path id="Vector_67" fill-rule="evenodd" clip-rule="evenodd" d="M221.044 401.279L226.526 401.79L223.459 406.362L221.044 401.279Z" fill="#C5C6C6"/>
<path id="Vector_68" fill-rule="evenodd" clip-rule="evenodd" d="M205.408 399.403C211.004 396.744 217.697 399.123 220.357 404.72C223.016 410.318 220.636 417.012 215.04 419.671C209.442 422.331 202.749 419.951 200.09 414.353C197.43 408.756 199.809 402.063 205.408 399.403ZM203.354 411.428L205.984 416.963C206.286 417.601 207.501 418.05 208.121 417.756C208.691 417.484 210.665 416.578 211.065 416.336C210.996 416.051 209.796 413.612 209.572 413.138C209.315 412.599 209.03 412.178 209.069 411.66C209.139 410.708 210.224 410.395 211.107 409.975C211.572 409.755 212.081 409.858 212.383 410.048C212.807 410.315 213.013 410.836 213.252 411.341C213.481 411.821 214.627 414.319 214.805 414.551C215.187 414.445 217.386 413.353 217.922 413.097C218.539 412.803 218.963 411.587 218.656 410.94L216.027 405.404C215.918 405.176 215.732 405.14 215.546 405.104C215.353 405.066 215.187 405.031 215.011 404.989L209.663 403.862C208.929 403.712 207.959 403.379 207.398 403.646C206.896 403.884 206.421 405.027 206.173 405.521L205.179 407.467C205.018 407.8 204.848 408.102 204.677 408.438C204.506 408.775 204.355 409.073 204.179 409.409L203.425 410.866C203.343 411.03 203.246 411.205 203.352 411.428H203.354Z" fill="#C5C6C6"/>
</g>
</g>
<g id="Group_46">
<path id="Vector_69" d="M356.367 414.106L348.924 398.446C344.97 390.126 346.825 383.381 354.689 379.645C362.092 376.126 367.138 378.465 370.316 385.149L378.972 403.363L383.624 401.151L374.655 382.281C371.013 374.617 363.408 370.279 354.302 374.608C346.243 378.438 344.178 385.923 345.68 391.957L345.352 392.112L340.526 381.956L336.333 383.95L351.717 416.316L356.368 414.104L356.367 414.106ZM406.995 390.845C416.038 386.549 420.56 377.814 416.854 370.017L416.604 369.493L412.02 371.673L412.206 372.066C414.945 377.832 412.311 383.1 404.907 386.618C396.257 390.731 390.313 387.852 386.544 379.924C382.776 371.997 384.3 365.571 392.949 361.46C400.352 357.941 406.102 359.223 408.841 364.989L409.028 365.382L413.614 363.201L413.365 362.679C409.659 354.882 400.031 352.873 390.99 357.169C380.637 362.089 377.221 372.306 381.893 382.135C386.564 391.962 396.644 395.765 406.995 390.845ZM444.734 372.909C453.775 368.613 458.248 360.783 455.04 354.035L454.822 353.577L450.171 355.787L450.388 356.246C452.631 360.964 450.432 365.463 442.831 369.075C434.249 373.155 428.428 370.539 424.71 363.392L453.211 349.846C453.001 348.9 452.665 347.855 452.105 346.675C447.528 337.044 438.163 334.749 428.663 339.263C418.246 344.214 415.027 354.34 419.697 364.166C424.586 374.453 434.318 377.859 444.735 372.908L444.734 372.909ZM430.433 343.161C438.034 339.548 444.072 341.097 447.31 347.911C447.467 348.238 447.622 348.567 447.778 348.892L423.339 360.508C420.304 353.277 422.049 347.147 430.435 343.161H430.433Z" fill="#C5C6C6"/>
<g id="Group_47">
<path id="Vector_70" fill-rule="evenodd" clip-rule="evenodd" d="M330.36 398.406L334.987 396.207C329.556 390.947 321.226 389.323 313.998 392.759C304.694 397.18 300.737 408.309 305.159 417.613C309.581 426.916 320.707 430.873 330.012 426.452C337.241 423.017 341.241 415.533 340.593 408L335.965 410.199C335.748 415.204 332.841 419.924 328.002 422.225C321.033 425.537 312.699 422.573 309.386 415.604C306.074 408.635 309.038 400.3 316.008 396.988C320.846 394.689 326.344 395.415 330.36 398.406Z" fill="#C5C6C6"/>
<path id="Vector_71" fill-rule="evenodd" clip-rule="evenodd" d="M332.972 401.279L338.452 401.79L335.386 406.362L332.972 401.279Z" fill="#C5C6C6"/>
<path id="Vector_72" fill-rule="evenodd" clip-rule="evenodd" d="M317.334 399.403C322.93 396.744 329.623 399.123 332.283 404.72C334.942 410.318 332.563 417.012 326.967 419.671C321.369 422.331 314.675 419.951 312.015 414.353C309.356 408.756 311.736 402.063 317.334 399.403ZM315.28 411.428L317.91 416.963C318.213 417.601 319.427 418.05 320.048 417.756C320.618 417.484 322.591 416.578 322.992 416.336C322.922 416.051 321.722 413.612 321.498 413.138C321.241 412.599 320.956 412.178 320.995 411.66C321.065 410.708 322.15 410.395 323.033 409.975C323.498 409.755 324.008 409.858 324.309 410.048C324.733 410.315 324.939 410.836 325.179 411.341C325.408 411.821 326.553 414.319 326.731 414.551C327.114 414.445 329.312 413.353 329.848 413.097C330.465 412.803 330.889 411.587 330.582 410.94L327.953 405.404C327.844 405.176 327.659 405.14 327.472 405.104C327.28 405.066 327.114 405.031 326.937 404.989L321.59 403.862C320.856 403.712 319.885 403.379 319.324 403.646C318.822 403.884 318.347 405.027 318.098 405.521L317.105 407.467C316.945 407.8 316.774 408.102 316.603 408.438C316.433 408.775 316.281 409.073 316.105 409.409L315.351 410.866C315.269 411.03 315.173 411.205 315.278 411.428H315.28Z" fill="#C5C6C6"/>
</g>
</g>
</g>
</g>
</g>
<rect id="Rectangle 668" x="-314.062" width="1003.12" height="428" fill="url(#paint0_linear_288_9212)"/>
</g>
<defs>
<linearGradient id="paint0_linear_288_9212" x1="187.5" y1="428" x2="187.5" y2="0" gradientUnits="userSpaceOnUse">
<stop stop-color="white" stop-opacity="0"/>
<stop offset="1" stop-color="white"/>
</linearGradient>
<clipPath id="clip0_288_9212">
<rect width="375" height="428" fill="white"/>
</clipPath>
</defs>
</svg>
