<svg width="20" height="20" viewBox="0 0 20 20" fill="none" xmlns="http://www.w3.org/2000/svg">
<circle cx="10" cy="10" r="2.5" stroke="#1B17B3" stroke-width="1.25"/>
<path d="M11.471 1.79349C11.1648 1.66663 10.7765 1.66663 9.99991 1.66663C9.22334 1.66663 8.83505 1.66663 8.52877 1.79349C8.12039 1.96265 7.79593 2.28711 7.62678 2.69549C7.54956 2.88191 7.51934 3.09871 7.50751 3.41495C7.49013 3.87969 7.2518 4.30987 6.84904 4.5424C6.44628 4.77493 5.95458 4.76624 5.54341 4.54892C5.26362 4.40104 5.06076 4.31881 4.8607 4.29247C4.42245 4.23478 3.97924 4.35354 3.62855 4.62263C3.36554 4.82444 3.1714 5.16071 2.78311 5.83324C2.39483 6.50576 2.20069 6.84203 2.15741 7.17071C2.09972 7.60896 2.21848 8.05218 2.48757 8.40286C2.61039 8.56292 2.783 8.69748 3.05091 8.86581C3.44475 9.11328 3.69816 9.53484 3.69813 9.99998C3.69811 10.4651 3.44471 10.8866 3.05091 11.134C2.78296 11.3024 2.61032 11.4369 2.48748 11.597C2.21839 11.9477 2.09964 12.3909 2.15733 12.8291C2.2006 13.1578 2.39475 13.4941 2.78303 14.1666C3.17132 14.8392 3.36546 15.1754 3.62847 15.3772C3.97915 15.6463 4.42237 15.7651 4.86062 15.7074C5.06066 15.6811 5.26352 15.5988 5.54328 15.451C5.95448 15.2336 6.44622 15.2249 6.849 15.4575C7.25178 15.69 7.49013 16.1202 7.50751 16.585C7.51934 16.9012 7.54956 17.118 7.62678 17.3044C7.79593 17.7128 8.12039 18.0373 8.52877 18.2064C8.83505 18.3333 9.22334 18.3333 9.99991 18.3333C10.7765 18.3333 11.1648 18.3333 11.471 18.2064C11.8794 18.0373 12.2039 17.7128 12.373 17.3044C12.4503 17.118 12.4805 16.9012 12.4923 16.5849C12.5097 16.1202 12.748 15.69 13.1507 15.4575C13.5535 15.2249 14.0453 15.2336 14.4565 15.4509C14.7362 15.5988 14.9391 15.681 15.1391 15.7073C15.5774 15.765 16.0206 15.6463 16.3713 15.3772C16.6343 15.1754 16.8284 14.8391 17.2167 14.1666C17.605 13.494 17.7991 13.1578 17.8424 12.8291C17.9001 12.3908 17.7813 11.9476 17.5123 11.5969C17.3894 11.4369 17.2168 11.3023 16.9489 11.134C16.555 10.8865 16.3017 10.465 16.3017 9.99988C16.3017 9.53483 16.5551 9.11336 16.9489 8.86595C17.2168 8.69758 17.3895 8.56301 17.5123 8.40292C17.7814 8.05223 17.9002 7.60902 17.8425 7.17077C17.7992 6.84209 17.6051 6.50582 17.2168 5.83329C16.8285 5.16076 16.6344 4.8245 16.3713 4.62268C16.0207 4.35359 15.5774 4.23483 15.1392 4.29253C14.9392 4.31887 14.7363 4.40109 14.4565 4.54896C14.0453 4.76629 13.5536 4.77497 13.1508 4.54243C12.748 4.30988 12.5097 3.87968 12.4923 3.41491C12.4805 3.09869 12.4503 2.8819 12.373 2.69549C12.2039 2.28711 11.8794 1.96265 11.471 1.79349Z" stroke="#1B17B3" stroke-width="1.25"/>
</svg>
