<svg width="28" height="28" viewBox="0 0 28 28" fill="none" xmlns="http://www.w3.org/2000/svg">
<path d="M25.5459 7.7359C25.9194 8.78295 25.3956 9.49982 24.3815 10.206C23.5634 10.7757 22.5211 11.3929 21.4166 12.4482C20.3338 13.4827 19.2771 14.7287 18.338 15.9551C17.2 17.4412 16.1239 18.9934 15.1767 20.6097C14.8195 21.2219 14.1773 21.5924 13.4887 21.5832C12.8 21.5738 12.1674 21.1863 11.8256 20.5644C10.9521 18.9746 10.278 18.3468 9.96819 18.1213C9.10859 17.4956 8.1665 17.3874 8.1665 16.0224C8.1665 14.9055 9.03711 14.0002 10.111 14.0002C10.8796 14.031 11.5831 14.3602 12.1984 14.8081C12.5976 15.0987 13.0204 15.4829 13.4603 15.9888C13.9764 15.2261 14.5985 14.3462 15.2957 13.4356C16.3083 12.1133 17.5036 10.6947 18.7854 9.47001C20.0454 8.26615 21.5022 7.13927 23.0464 6.54346C24.0532 6.15498 25.1723 6.68884 25.5459 7.7359Z" stroke="#1B17B3" stroke-width="1.75" stroke-linecap="round" stroke-linejoin="round"/>
<path d="M5.17971 14.088C4.99486 14.0275 4.82778 13.9893 4.68144 13.9665C4.60844 13.955 4.54113 13.9475 4.47988 13.9428L4.31551 13.9363C3.22087 13.9363 2.3335 14.8493 2.3335 15.9755C2.3335 16.9947 3.06026 17.8392 4.0097 17.9905C4.0429 18.008 4.09676 18.0394 4.16991 18.0922C4.48569 18.3195 5.17278 18.9527 6.06317 20.5558C6.41149 21.183 7.05629 21.5737 7.7583 21.5832C8.23919 21.5896 8.69787 21.4161 9.05613 21.1078M17.5002 6.41663C15.9262 7.01746 14.4413 8.15384 13.157 9.36786C12.7085 9.79178 12.2705 10.2388 11.8467 10.6969" stroke="#1B17B3" stroke-width="1.75" stroke-linecap="round" stroke-linejoin="round"/>
</svg>
