<svg width="22" height="18" viewBox="0 0 22 18" fill="none" xmlns="http://www.w3.org/2000/svg">
<path fill-rule="evenodd" clip-rule="evenodd" d="M10.75 5C8.67893 5 7 6.67893 7 8.75C7 10.8211 8.67893 12.5 10.75 12.5C12.8211 12.5 14.5 10.8211 14.5 8.75C14.5 6.67893 12.8211 5 10.75 5ZM8.5 8.75C8.5 7.50736 9.50736 6.5 10.75 6.5C11.9926 6.5 13 7.50736 13 8.75C13 9.99264 11.9926 11 10.75 11C9.50736 11 8.5 9.99264 8.5 8.75Z" fill="#1C274C"/>
<path fill-rule="evenodd" clip-rule="evenodd" d="M10.75 0C6.23587 0 3.19529 2.7042 1.43057 4.99686L1.39874 5.0382C0.999638 5.55653 0.63206 6.03392 0.382687 6.5984C0.115645 7.20287 0 7.86169 0 8.75C0 9.63831 0.115645 10.2971 0.382687 10.9016C0.632062 11.4661 0.999641 11.9435 1.39875 12.4618L1.43057 12.5031C3.19529 14.7958 6.23587 17.5 10.75 17.5C15.2641 17.5 18.3047 14.7958 20.0694 12.5031L20.1012 12.4618C20.5004 11.9435 20.8679 11.4661 21.1173 10.9016C21.3844 10.2971 21.5 9.63831 21.5 8.75C21.5 7.86169 21.3844 7.20287 21.1173 6.5984C20.8679 6.03391 20.5004 5.55652 20.1012 5.03818L20.0694 4.99686C18.3047 2.7042 15.2641 0 10.75 0ZM2.61922 5.9118C4.24864 3.79492 6.90036 1.5 10.75 1.5C14.5996 1.5 17.2514 3.79492 18.8808 5.9118C19.3194 6.48159 19.5763 6.82206 19.7452 7.20455C19.9032 7.56202 20 7.99894 20 8.75C20 9.50107 19.9032 9.93798 19.7452 10.2955C19.5763 10.6779 19.3194 11.0184 18.8808 11.5882C17.2514 13.7051 14.5996 16 10.75 16C6.90036 16 4.24864 13.7051 2.61922 11.5882C2.18064 11.0184 1.92374 10.6779 1.75476 10.2955C1.59684 9.93798 1.5 9.50107 1.5 8.75C1.5 7.99894 1.59684 7.56202 1.75476 7.20455C1.92374 6.82206 2.18063 6.48159 2.61922 5.9118Z" fill="#1C274C"/>
</svg>
